<svg width="1437" height="645" viewBox="0 0 1437 645" fill="none" xmlns="http://www.w3.org/2000/svg">
<mask id="mask0" mask-type="alpha" maskUnits="userSpaceOnUse" x="0" y="0" width="1437" height="647">
<rect y="0.73877" width="1437" height="646" fill="#C4C4C4"/>
</mask>
<g mask="url(#mask0)">
<path fill-rule="evenodd" clip-rule="evenodd" d="M-270.69 880.11C-619.714 880.11 150.714 1140.9 -88.4076 907.987C-327.53 675.077 279.88 160.436 631.19 53.6432C982.5 -53.1498 1109.76 126.023 1213.22 449.444C1213.8 451.254 1345.19 400.096 1290.82 624.238C1219.31 919.054 78.3352 880.11 -270.69 880.11Z" fill="url(#paint0_linear)"/>
<path fill-rule="evenodd" clip-rule="evenodd" d="M932.68 31.3842C1330.85 6.49457 1561.93 162.417 1593.88 281.406C1625.82 400.394 1706.23 884.639 1100.76 985.631C495.285 1086.62 -507.235 765.52 -383.544 532.461C-259.852 299.402 534.509 56.2738 932.68 31.3842Z" fill="url(#paint1_linear)"/>
</g>
<defs>
<linearGradient id="paint0_linear" x1="1172.72" y1="817.545" x2="-291.525" y2="532.839" gradientUnits="userSpaceOnUse">
<stop stop-color="#FF8576"/>
<stop offset="1" stop-color="#FF3B30"/>
</linearGradient>
<linearGradient id="paint1_linear" x1="-235.713" y1="214.789" x2="1499.99" y2="624.218" gradientUnits="userSpaceOnUse">
<stop stop-color="#0084F8"/>
<stop offset="1" stop-color="#58C2F1"/>
</linearGradient>
</defs>
</svg>
