<svg width="175" height="29" viewBox="0 0 175 29" fill="none" xmlns="http://www.w3.org/2000/svg">
<path d="M11.858 14.2534H21.3151V27.1558C19.7682 27.6597 18.2799 28.0171 16.8502 28.228C15.4323 28.439 13.8971 28.5444 12.2448 28.5444C8.35413 28.5444 5.35413 27.396 3.24475 25.0991C1.13538 22.7905 0.0806885 19.5386 0.0806885 15.3433C0.0806885 11.2065 1.27014 7.97217 3.64905 5.64014C6.02795 3.29639 9.30334 2.12451 13.4752 2.12451C16.1588 2.12451 18.7018 2.64014 21.1041 3.67139L19.6276 7.16943C17.5416 6.2085 15.4557 5.72803 13.3698 5.72803C10.6276 5.72803 8.45959 6.58936 6.86584 8.31201C5.27209 10.0347 4.47522 12.3901 4.47522 15.3784C4.47522 18.519 5.19006 20.9097 6.61975 22.5503C8.06116 24.1792 10.1295 24.9937 12.8248 24.9937C14.1842 24.9937 15.6373 24.8237 17.1842 24.4839V17.8569H11.858V14.2534ZM44.3073 18.437C44.3073 21.6128 43.4928 24.0913 41.8639 25.8726C40.235 27.6538 37.9674 28.5444 35.0612 28.5444C33.2448 28.5444 31.6393 28.1343 30.2448 27.314C28.8502 26.4937 27.778 25.3159 27.028 23.7808C26.278 22.2456 25.903 20.4644 25.903 18.437C25.903 15.2847 26.7115 12.8237 28.3287 11.0542C29.9459 9.28467 32.2252 8.3999 35.1666 8.3999C37.9791 8.3999 40.2057 9.30811 41.8463 11.1245C43.4869 12.9292 44.3073 15.3667 44.3073 18.437ZM30.1569 18.437C30.1569 22.9253 31.8151 25.1694 35.1315 25.1694C38.4127 25.1694 40.0533 22.9253 40.0533 18.437C40.0533 13.9956 38.401 11.7749 35.0963 11.7749C33.3619 11.7749 32.1022 12.3491 31.317 13.4976C30.5436 14.646 30.1569 16.2925 30.1569 18.437ZM53.2018 28.1929H49.0709V0.841309H53.2018V28.1929ZM63.2565 28.1929H59.1256V8.75146H63.2565V28.1929ZM58.8795 3.60107C58.8795 2.86279 59.0787 2.29443 59.4772 1.896C59.8873 1.49756 60.4674 1.29834 61.2174 1.29834C61.944 1.29834 62.5065 1.49756 62.9049 1.896C63.3151 2.29443 63.5201 2.86279 63.5201 3.60107C63.5201 4.3042 63.3151 4.86084 62.9049 5.271C62.5065 5.66943 61.944 5.86865 61.2174 5.86865C60.4674 5.86865 59.8873 5.66943 59.4772 5.271C59.0787 4.86084 58.8795 4.3042 58.8795 3.60107ZM73.1705 17.9272L75.5084 15.0093L81.3795 8.75146H86.1432L78.3209 17.1011L86.6354 28.1929H81.7838L75.5436 19.6675L73.276 21.5308V28.1929H69.1803V0.841309H73.276V14.1831L73.0651 17.9272H73.1705ZM98.2721 28.5444C95.2487 28.5444 92.8815 27.6655 91.1705 25.9077C89.4713 24.1382 88.6217 21.7065 88.6217 18.6128C88.6217 15.437 89.4127 12.9409 90.9948 11.1245C92.5768 9.30811 94.7506 8.3999 97.5162 8.3999C100.083 8.3999 102.11 9.1792 103.598 10.7378C105.087 12.2964 105.831 14.4409 105.831 17.1714V19.4038H92.8756C92.9342 21.2905 93.444 22.7437 94.4049 23.7632C95.3658 24.771 96.7194 25.2749 98.4655 25.2749C99.6139 25.2749 100.68 25.1694 101.665 24.9585C102.661 24.7358 103.727 24.3726 104.864 23.8687V27.2261C103.856 27.7065 102.837 28.0464 101.805 28.2456C100.774 28.4448 99.5963 28.5444 98.2721 28.5444ZM97.5162 11.5288C96.2037 11.5288 95.149 11.9448 94.3522 12.7769C93.567 13.6089 93.0983 14.8218 92.9459 16.4155H101.77C101.747 14.8101 101.36 13.5972 100.61 12.7769C99.86 11.9448 98.8287 11.5288 97.5162 11.5288ZM109.909 25.9956C109.909 25.1401 110.131 24.4839 110.577 24.0269C111.022 23.5698 111.667 23.3413 112.51 23.3413C113.366 23.3413 114.016 23.5815 114.462 24.062C114.907 24.5308 115.13 25.1753 115.13 25.9956C115.13 26.8276 114.901 27.4897 114.444 27.9819C113.999 28.4624 113.354 28.7026 112.51 28.7026C111.667 28.7026 111.022 28.4624 110.577 27.9819C110.131 27.5015 109.909 26.8394 109.909 25.9956ZM137.542 28.1929H133.393V16.2397C133.393 14.7397 133.089 13.6206 132.479 12.8823C131.881 12.144 130.926 11.7749 129.614 11.7749C127.868 11.7749 126.59 12.2905 125.782 13.3218C124.973 14.353 124.569 16.0815 124.569 18.5073V28.1929H120.438V8.75146H123.672L124.253 11.3003H124.464C125.049 10.3745 125.881 9.65967 126.96 9.15576C128.038 8.65186 129.233 8.3999 130.546 8.3999C135.21 8.3999 137.542 10.7729 137.542 15.519V28.1929ZM151.78 28.5444C148.756 28.5444 146.389 27.6655 144.678 25.9077C142.979 24.1382 142.13 21.7065 142.13 18.6128C142.13 15.437 142.921 12.9409 144.503 11.1245C146.085 9.30811 148.258 8.3999 151.024 8.3999C153.59 8.3999 155.618 9.1792 157.106 10.7378C158.594 12.2964 159.339 14.4409 159.339 17.1714V19.4038H146.383C146.442 21.2905 146.952 22.7437 147.913 23.7632C148.874 24.771 150.227 25.2749 151.973 25.2749C153.122 25.2749 154.188 25.1694 155.172 24.9585C156.169 24.7358 157.235 24.3726 158.372 23.8687V27.2261C157.364 27.7065 156.344 28.0464 155.313 28.2456C154.282 28.4448 153.104 28.5444 151.78 28.5444ZM151.024 11.5288C149.712 11.5288 148.657 11.9448 147.86 12.7769C147.075 13.6089 146.606 14.8218 146.454 16.4155H155.278C155.255 14.8101 154.868 13.5972 154.118 12.7769C153.368 11.9448 152.337 11.5288 151.024 11.5288ZM171.274 25.2046C172.282 25.2046 173.29 25.0464 174.297 24.73V27.8413C173.84 28.0405 173.249 28.2046 172.522 28.3335C171.807 28.4741 171.063 28.5444 170.29 28.5444C166.376 28.5444 164.419 26.4819 164.419 22.3569V11.8804H161.764V10.0522L164.612 8.54053L166.018 4.42725H168.567V8.75146H174.104V11.8804H168.567V22.2866C168.567 23.2827 168.813 24.021 169.305 24.5015C169.809 24.9702 170.465 25.2046 171.274 25.2046Z" fill="#0084F8"/>
</svg>
