<svg width="87" height="87" viewBox="0 0 87 87" fill="none" xmlns="http://www.w3.org/2000/svg">
<path d="M43.9075 85.1738C67.1035 85.1738 85.9075 66.3698 85.9075 43.1738C85.9075 19.9779 67.1035 1.17383 43.9075 1.17383C20.7116 1.17383 1.90753 19.9779 1.90753 43.1738C1.90753 66.3698 20.7116 85.1738 43.9075 85.1738Z" fill="#0084F8" stroke="white" stroke-width="2"/>
<path opacity="0.2" d="M65.9091 8.45142C73.3196 15.8813 77.9037 26.1486 77.9037 37.4902C77.9037 60.1629 59.585 78.5427 36.9877 78.5427C28.9241 78.5427 21.4061 76.2009 15.0701 72.1602C22.4737 79.5832 32.6982 84.1739 43.9915 84.1739C66.5888 84.1739 84.9074 65.794 84.9074 43.1214C84.9073 28.5394 77.3289 15.7343 65.9091 8.45142Z" fill="url(#paint0_linear)"/>
<path fill-rule="evenodd" clip-rule="evenodd" d="M67.2522 36.356C67.2522 37.9193 66.7097 39.4218 65.7298 40.6481C65.9397 41.311 66.0447 41.996 66.0447 42.692C66.0447 44.2553 65.5023 45.7578 64.5223 46.9841C64.7323 47.647 64.8373 48.332 64.8373 49.028C64.8373 50.5913 64.2948 52.0938 63.3149 53.3201C63.5249 53.983 63.6299 54.668 63.6299 55.364C63.6299 58.2143 61.8392 60.783 59.0627 61.9043C58.5785 62.1032 58.0594 62.2026 57.5169 62.2026H29.9794L29.9823 58.2791H34.1792V58.2792H57.4435C58.6335 57.771 59.436 56.6069 59.436 55.3695C59.4391 54.8426 59.3006 54.3237 59.0335 53.8615L58.2227 52.4584L59.5001 51.4088C60.2292 50.8122 60.6434 49.945 60.6434 49.0335C60.6465 48.5066 60.508 47.9877 60.2409 47.5255L59.4301 46.1224L60.7076 45.0728C61.4367 44.4762 61.8508 43.609 61.8508 42.6975C61.854 42.1707 61.7155 41.6517 61.4483 41.1895L60.6317 39.7809L61.9092 38.7313C62.6383 38.1347 63.0524 37.2675 63.0524 36.356C63.0524 35.301 62.4108 34.2845 61.3725 33.6824H43.0336L43.5936 22.7229C43.6286 22.0655 43.3195 21.4469 42.742 21.0381C42.3862 20.7895 41.9487 20.6625 41.5112 20.668C40.9523 20.6731 40.4103 20.8498 39.9664 21.1715C39.5226 21.4932 39.2009 21.9426 39.0497 22.4522L38.6638 23.7773C36.7841 30.2307 35.3394 35.1909 34.3254 38.6619H29.9969L29.9969 38.5601L35.0016 21.3916C35.8066 18.6241 38.4897 16.6907 41.5229 16.6907C42.3734 16.687 43.2155 16.8489 43.9972 17.1663C44.7789 17.4836 45.4833 17.9498 46.0668 18.5357C47.2625 19.7234 47.875 21.2811 47.7875 22.9218L47.4375 29.7107H61.4308C62.1342 29.7101 62.8249 29.8874 63.4316 30.2244C65.7881 31.5226 67.2522 33.8758 67.2522 36.356Z" fill="white"/>
<path d="M23.7018 40.4274C23.7018 39.4523 24.4923 38.6619 25.4674 38.6619H34.2951L34.2065 39.0607C33.7998 40.8908 32.1766 42.193 30.3018 42.193H25.4674C24.4923 42.193 23.7018 41.4025 23.7018 40.4274Z" fill="white"/>
<path d="M27.2332 60.241C27.2332 59.1576 28.1114 58.2793 29.1949 58.2793H37.8265L37.6849 58.9872C37.3109 60.8569 35.6693 62.2027 33.7626 62.2027H29.1949C28.1114 62.2027 27.2332 61.3244 27.2332 60.241Z" fill="white"/>
<path fill-rule="evenodd" clip-rule="evenodd" d="M27.8215 24.5376C26.8464 24.5376 26.056 25.3281 26.056 26.3031C26.056 27.2782 26.8464 28.0687 27.8215 28.0687H34.4914C35.4665 28.0687 36.2569 27.2782 36.2569 26.3031C36.2569 25.3281 35.4665 24.5376 34.4914 24.5376H27.8215ZM27.2332 33.3654C27.2332 32.3903 28.0237 31.5998 28.9987 31.5998H32.5298C33.5049 31.5998 34.2954 32.3903 34.2954 33.3654C34.2954 34.3405 33.5049 35.1309 32.5299 35.1309H28.9987C28.0237 35.1309 27.2332 34.3405 27.2332 33.3654ZM13.1087 40.4275C13.1087 39.4524 13.8992 38.6619 14.8743 38.6619H19.9747C20.9498 38.6619 21.7403 39.4524 21.7403 40.4275C21.7403 41.4025 20.9498 42.193 19.9747 42.193H14.8743C13.8992 42.193 13.1087 41.4025 13.1087 40.4275ZM21.3478 60.241C21.3478 59.1576 22.2261 58.2793 23.3095 58.2793H23.7019C24.7853 58.2793 25.6636 59.1576 25.6636 60.241C25.6636 61.3244 24.7853 62.2027 23.7019 62.2027H23.3095C22.2261 62.2027 21.3478 61.3244 21.3478 60.241ZM23.5059 31.5998C22.5308 31.5998 21.7403 32.3903 21.7403 33.3654C21.7403 34.3405 22.5308 35.1309 23.5059 35.1309H24.2906C25.2657 35.1309 26.0561 34.3405 26.0561 33.3654C26.0561 32.3903 25.2657 31.5998 24.2906 31.5998H23.5059Z" fill="white"/>
<path d="M45.0804 36.9528V38.6277C43.4235 39.2174 42.2333 40.8062 42.2333 42.6698C42.2333 45.0337 44.1488 46.9576 46.5036 46.9576C47.2884 46.9576 47.9269 47.5987 47.9269 48.3867C47.9269 49.1747 47.2884 49.8158 46.5036 49.8158C45.8957 49.8158 45.2389 49.4322 44.6555 48.7346C44.1493 48.1304 43.2517 48.0528 42.6499 48.5604C42.0481 49.0686 41.9703 49.97 42.4764 50.5742C43.2372 51.4828 44.1321 52.1161 45.0804 52.4356V54.1037C45.0804 54.8933 45.7177 55.5328 46.5036 55.5328C47.2895 55.5328 47.9269 54.8933 47.9269 54.1037V52.4289C49.5837 51.8386 50.7739 50.2497 50.7739 48.3867C50.7739 46.0222 48.8585 44.0989 46.5036 44.0989C45.7189 44.0989 45.0804 43.4578 45.0804 42.6698C45.0804 41.8818 45.7189 41.2401 46.5036 41.2401C47.0081 41.2401 47.5403 41.4987 48.0431 41.9874C48.6082 42.5363 49.5092 42.5212 50.0559 41.9544C50.6026 41.387 50.5876 40.4823 50.0231 39.9333C49.3006 39.2314 48.5776 38.8343 47.9269 38.6176V36.9528C47.9269 36.1632 47.2895 35.5232 46.5036 35.5232C45.7177 35.5232 45.0804 36.1632 45.0804 36.9528Z" fill="white"/>
<defs>
<linearGradient id="paint0_linear" x1="20.5698" y1="69.7393" x2="83.5297" y2="63.0884" gradientUnits="userSpaceOnUse">
<stop stop-color="#0084F8"/>
<stop offset="1" stop-color="#58C2F1"/>
</linearGradient>
</defs>
</svg>
