<svg width="326" height="222" viewBox="0 0 326 222" fill="none" xmlns="http://www.w3.org/2000/svg">
<g clip-path="url(#clip0)">
<path d="M137.412 102.963C137.639 103.465 137.857 103.968 138.076 104.478H297.335V102.963H137.412Z" fill="url(#paint0_linear)"/>
<path d="M297.335 105.978H138.076C137.387 105.978 136.766 105.603 136.514 105.033L135.851 103.518C135.649 103.053 135.708 102.535 136.027 102.123C136.338 101.71 136.858 101.462 137.412 101.462H297.335C298.258 101.462 299.014 102.138 299.014 102.963V104.478C299.014 105.303 298.258 105.978 297.335 105.978Z" fill="url(#paint1_linear)"/>
<path d="M297.15 106.563C298.905 106.563 300.332 105.288 300.332 103.72C300.332 102.152 298.905 100.877 297.15 100.877C295.395 100.877 293.968 102.152 293.968 103.72C293.968 105.296 295.395 106.563 297.15 106.563Z" fill="url(#paint2_linear)"/>
<path d="M297.15 108.064C294.471 108.064 292.288 106.113 292.288 103.72C292.288 101.327 294.471 99.377 297.15 99.377C299.828 99.377 302.012 101.327 302.012 103.72C302.012 106.113 299.837 108.064 297.15 108.064ZM297.15 102.378C296.319 102.378 295.647 102.978 295.647 103.72C295.647 104.463 296.319 105.063 297.15 105.063C297.981 105.063 298.653 104.463 298.653 103.72C298.653 102.985 297.981 102.378 297.15 102.378Z" fill="url(#paint3_linear)"/>
<path d="M297.15 106.946C295.16 106.946 293.548 105.498 293.548 103.728C293.548 101.95 295.168 100.51 297.15 100.51C299.14 100.51 300.752 101.958 300.752 103.728C300.76 105.498 299.14 106.946 297.15 106.946C295.16 106.946 299.14 106.946 297.15 106.946ZM297.15 101.252C295.63 101.252 294.388 102.363 294.388 103.72C294.388 105.078 295.622 106.188 297.15 106.188C298.678 106.188 299.912 105.086 299.912 103.72C299.912 102.363 298.67 101.252 297.15 101.252C295.63 101.252 298.67 101.252 297.15 101.252Z" fill="url(#paint4_linear)"/>
<path d="M297.729 108.446H296.579C296.327 108.446 296.084 108.394 295.865 108.304C293.573 107.786 291.868 105.933 291.868 103.72C291.868 101.117 294.236 99.002 297.15 99.002C300.064 99.002 302.431 101.117 302.431 103.72C302.431 105.926 300.727 107.786 298.435 108.304C298.225 108.394 297.981 108.446 297.729 108.446ZM297.15 102.753C296.554 102.753 296.067 103.188 296.067 103.72C296.067 104.253 296.554 104.688 297.15 104.688C297.746 104.688 298.233 104.253 298.233 103.72C298.233 103.188 297.746 102.753 297.15 102.753Z" fill="url(#paint5_linear)"/>
<path d="M140.771 111.364C140.939 111.867 141.098 112.369 141.258 112.88H319.905V111.364H140.771Z" fill="url(#paint6_linear)"/>
<path d="M319.905 114.38H141.258C140.502 114.38 139.847 113.93 139.637 113.285L139.579 113.082C139.444 112.655 139.31 112.227 139.167 111.799C139.016 111.342 139.108 110.854 139.427 110.472C139.747 110.089 140.242 109.864 140.779 109.864H319.913C320.837 109.864 321.592 110.539 321.592 111.364V112.88C321.584 113.705 320.828 114.38 319.905 114.38Z" fill="url(#paint7_linear)"/>
<path d="M319.72 114.965C321.475 114.965 322.902 113.69 322.902 112.122C322.902 110.554 321.475 109.279 319.72 109.279C317.965 109.279 316.538 110.554 316.538 112.122C316.538 113.69 317.965 114.965 319.72 114.965Z" fill="url(#paint8_linear)"/>
<path d="M319.72 116.465C317.042 116.465 314.858 114.515 314.858 112.122C314.858 109.729 317.042 107.779 319.72 107.779C322.399 107.779 324.582 109.729 324.582 112.122C324.582 114.515 322.407 116.465 319.72 116.465ZM319.72 110.779C318.889 110.779 318.217 111.379 318.217 112.122C318.217 112.865 318.889 113.465 319.72 113.465C320.551 113.465 321.223 112.865 321.223 112.122C321.223 111.379 320.551 110.779 319.72 110.779Z" fill="url(#paint9_linear)"/>
<path d="M319.72 115.348C317.73 115.348 316.118 113.9 316.118 112.129C316.118 110.352 317.738 108.911 319.72 108.911C321.71 108.911 323.322 110.359 323.322 112.129C323.33 113.9 321.71 115.348 319.72 115.348C317.738 115.348 321.71 115.348 319.72 115.348ZM319.72 109.662C318.2 109.662 316.957 110.764 316.957 112.129C316.957 113.495 318.192 114.597 319.72 114.597C321.248 114.597 322.482 113.495 322.482 112.129C322.482 110.764 321.248 109.662 319.72 109.662C318.192 109.662 321.248 109.662 319.72 109.662Z" fill="url(#paint10_linear)"/>
<path d="M320.299 116.848H319.149C318.897 116.848 318.654 116.795 318.435 116.705C316.143 116.188 314.438 114.335 314.438 112.122C314.438 109.519 316.806 107.404 319.72 107.404C322.634 107.404 325.001 109.519 325.001 112.122C325.001 114.327 323.297 116.188 321.005 116.705C320.795 116.795 320.551 116.848 320.299 116.848ZM319.72 111.162C319.124 111.162 318.637 111.597 318.637 112.129C318.637 112.662 319.124 113.097 319.72 113.097C320.316 113.097 320.803 112.662 320.803 112.129C320.803 111.589 320.316 111.162 319.72 111.162Z" fill="url(#paint11_linear)"/>
<path d="M143.072 119.766C143.181 120.268 143.282 120.771 143.382 121.281H297.335V119.766H143.072Z" fill="url(#paint12_linear)"/>
<path d="M297.335 122.781H143.382C142.568 122.781 141.871 122.256 141.728 121.536C141.627 121.041 141.535 120.546 141.426 120.051C141.334 119.608 141.459 119.158 141.779 118.813C142.098 118.468 142.576 118.266 143.072 118.266H297.335C298.258 118.266 299.014 118.941 299.014 119.766V121.281C299.014 122.106 298.258 122.781 297.335 122.781Z" fill="url(#paint13_linear)"/>
<path d="M297.15 123.367C298.905 123.367 300.332 122.091 300.332 120.523C300.332 118.956 298.905 117.68 297.15 117.68C295.395 117.68 293.968 118.956 293.968 120.523C293.968 122.091 295.395 123.367 297.15 123.367Z" fill="url(#paint14_linear)"/>
<path d="M297.15 124.867C294.471 124.867 292.288 122.916 292.288 120.524C292.288 118.131 294.471 116.18 297.15 116.18C299.828 116.18 302.012 118.131 302.012 120.524C302.012 122.916 299.837 124.867 297.15 124.867ZM297.15 119.181C296.319 119.181 295.647 119.781 295.647 120.524C295.647 121.266 296.319 121.866 297.15 121.866C297.981 121.866 298.653 121.266 298.653 120.524C298.653 119.781 297.981 119.181 297.15 119.181Z" fill="url(#paint15_linear)"/>
<path d="M297.15 123.742C295.16 123.742 293.548 122.294 293.548 120.524C293.548 118.753 295.168 117.305 297.15 117.305C299.14 117.305 300.752 118.753 300.752 120.524C300.752 122.294 299.14 123.742 297.15 123.742C295.16 123.742 299.14 123.742 297.15 123.742ZM297.15 118.056C295.63 118.056 294.388 119.158 294.388 120.524C294.388 121.881 295.622 122.992 297.15 122.992C298.678 122.992 299.912 121.889 299.912 120.524C299.912 119.166 298.67 118.056 297.15 118.056C295.63 118.056 298.67 118.056 297.15 118.056Z" fill="url(#paint16_linear)"/>
<path d="M297.729 125.242H296.579C296.327 125.242 296.084 125.189 295.865 125.099C293.573 124.582 291.868 122.729 291.868 120.516C291.868 117.913 294.236 115.798 297.15 115.798C300.064 115.798 302.431 117.913 302.431 120.516C302.431 122.721 300.727 124.582 298.435 125.099C298.225 125.197 297.981 125.242 297.729 125.242ZM297.15 119.556C296.554 119.556 296.067 119.991 296.067 120.524C296.067 121.056 296.554 121.491 297.15 121.491C297.746 121.491 298.233 121.056 298.233 120.524C298.233 119.991 297.746 119.556 297.15 119.556Z" fill="url(#paint17_linear)"/>
<path d="M129.83 48.6672C129.931 49.1548 130.04 49.6349 130.141 50.13H188.287V48.6672H129.83Z" fill="url(#paint18_linear)"/>
<path d="M188.279 51.6304H130.132C129.318 51.6304 128.621 51.1128 128.478 50.4002C128.411 50.0551 128.336 49.7176 128.26 49.38L128.168 48.9524C128.075 48.5098 128.201 48.0597 128.52 47.7147C128.839 47.3696 129.31 47.1746 129.813 47.1746H188.262C189.186 47.1746 189.942 47.8497 189.942 48.6749V50.1376C189.958 50.9628 189.211 51.6304 188.279 51.6304Z" fill="url(#paint19_linear)"/>
<path d="M188.111 52.1405C189.807 52.1405 191.184 50.9102 191.184 49.3949C191.184 47.8797 189.807 46.6494 188.111 46.6494C186.415 46.6494 185.038 47.8797 185.038 49.3949C185.038 50.9177 186.415 52.1405 188.111 52.1405Z" fill="url(#paint20_linear)"/>
<path d="M188.111 53.6408C185.491 53.6408 183.359 51.7354 183.359 49.395C183.359 47.0545 185.491 45.1492 188.111 45.1492C190.731 45.1492 192.864 47.0545 192.864 49.395C192.855 51.7429 190.731 53.6408 188.111 53.6408ZM188.111 48.1573C187.347 48.1573 186.717 48.7124 186.717 49.4025C186.717 50.0851 187.339 50.6477 188.111 50.6477C188.875 50.6477 189.505 50.0926 189.505 49.4025C189.497 48.7124 188.875 48.1573 188.111 48.1573Z" fill="url(#paint21_linear)"/>
<path d="M188.111 52.5081C186.188 52.5081 184.635 51.1128 184.635 49.4025C184.635 47.6846 186.197 46.2969 188.111 46.2969C190.026 46.2969 191.587 47.6921 191.587 49.4025C191.587 51.1128 190.026 52.5081 188.111 52.5081C186.188 52.5081 190.026 52.5081 188.111 52.5081ZM188.111 47.0245C186.642 47.0245 185.449 48.0897 185.449 49.4025C185.449 50.7152 186.642 51.7804 188.111 51.7804C189.58 51.7804 190.773 50.7152 190.773 49.4025C190.773 48.0897 189.58 47.0245 188.111 47.0245C186.642 47.0245 189.58 47.0245 188.111 47.0245Z" fill="url(#paint22_linear)"/>
<path d="M188.665 54.0083H187.557C187.305 54.0083 187.062 53.9558 186.852 53.8658C184.618 53.3632 182.956 51.5479 182.956 49.395C182.956 46.852 185.273 44.7891 188.111 44.7891C190.958 44.7891 193.267 46.8595 193.267 49.395C193.267 51.5479 191.604 53.3632 189.371 53.8658C189.152 53.9558 188.917 54.0083 188.665 54.0083ZM188.111 48.5248C187.565 48.5248 187.129 48.9224 187.129 49.4024C187.129 49.89 187.574 50.2801 188.111 50.2801C188.657 50.2801 189.094 49.89 189.094 49.4024C189.094 48.9149 188.648 48.5248 188.111 48.5248Z" fill="url(#paint23_linear)"/>
<path d="M127.32 38.6152C127.462 39.1028 127.605 39.5829 127.739 40.078H197.952V38.6152H127.32Z" fill="url(#paint24_linear)"/>
<path d="M197.952 41.5784H127.739C126.967 41.5784 126.295 41.1058 126.11 40.4382C126.018 40.1081 125.926 39.7856 125.833 39.463L125.699 38.9979C125.573 38.5478 125.682 38.0677 126.001 37.7077C126.32 37.3401 126.807 37.1226 127.328 37.1226H197.96C198.884 37.1226 199.64 37.7977 199.64 38.6228V40.0856C199.631 40.9033 198.876 41.5784 197.952 41.5784Z" fill="url(#paint25_linear)"/>
<path d="M197.776 42.0885C199.472 42.0885 200.849 40.8582 200.849 39.3429C200.849 37.8276 199.472 36.5974 197.776 36.5974C196.08 36.5974 194.703 37.8276 194.703 39.3429C194.703 40.8582 196.08 42.0885 197.776 42.0885Z" fill="url(#paint26_linear)"/>
<path d="M197.776 43.5888C195.156 43.5888 193.023 41.6834 193.023 39.343C193.023 37.0025 195.156 35.0972 197.776 35.0972C200.395 35.0972 202.528 37.0025 202.528 39.343C202.528 41.6834 200.395 43.5888 197.776 43.5888ZM197.776 38.1052C197.012 38.1052 196.382 38.6604 196.382 39.3505C196.382 40.0331 197.003 40.5957 197.776 40.5957C198.54 40.5957 199.17 40.0406 199.17 39.3505C199.17 38.6604 198.548 38.1052 197.776 38.1052Z" fill="url(#paint27_linear)"/>
<path d="M197.776 42.4561C195.861 42.4561 194.299 41.0608 194.299 39.3505C194.299 37.6401 195.861 36.2449 197.776 36.2449C199.698 36.2449 201.252 37.6401 201.252 39.3505C201.26 41.0608 199.698 42.4561 197.776 42.4561C195.861 42.4561 199.698 42.4561 197.776 42.4561ZM197.776 36.965C196.306 36.965 195.114 38.0302 195.114 39.343C195.114 40.6557 196.306 41.7209 197.776 41.7209C199.245 41.7209 200.437 40.6557 200.437 39.343C200.437 38.0302 199.245 36.965 197.776 36.965C196.315 36.965 199.245 36.965 197.776 36.965Z" fill="url(#paint28_linear)"/>
<path d="M198.33 43.9563H197.221C196.97 43.9563 196.726 43.9038 196.516 43.8138C194.283 43.3112 192.62 41.4959 192.62 39.3429C192.62 36.8 194.938 34.7371 197.776 34.7371C200.622 34.7371 202.931 36.8075 202.931 39.3429C202.931 41.4959 201.269 43.3112 199.035 43.8138C198.825 43.9038 198.582 43.9563 198.33 43.9563ZM197.776 38.4653C197.238 38.4653 196.793 38.8629 196.793 39.3429C196.793 39.823 197.23 40.2206 197.776 40.2206C198.321 40.2206 198.758 39.8305 198.758 39.3429C198.758 38.8553 198.321 38.4653 197.776 38.4653Z" fill="url(#paint29_linear)"/>
<path d="M123.222 28.5632C123.499 29.0433 123.776 29.5309 124.036 30.026H207.255V28.5632H123.222Z" fill="url(#paint30_linear)"/>
<path d="M207.255 31.5188H124.028C123.373 31.5188 122.785 31.1813 122.508 30.6562C122.256 30.1836 121.996 29.7185 121.727 29.2534C121.459 28.7883 121.475 28.2332 121.786 27.7831C122.088 27.333 122.634 27.063 123.222 27.063H207.255C208.179 27.063 208.935 27.7381 208.935 28.5633V30.0261C208.935 30.8512 208.179 31.5188 207.255 31.5188Z" fill="url(#paint31_linear)"/>
<path d="M207.079 32.0365C208.775 32.0365 210.152 30.8062 210.152 29.2909C210.152 27.7756 208.775 26.5454 207.079 26.5454C205.383 26.5454 204.006 27.7756 204.006 29.2909C204.006 30.8062 205.383 32.0365 207.079 32.0365Z" fill="url(#paint32_linear)"/>
<path d="M207.079 33.5368C204.459 33.5368 202.327 31.6314 202.327 29.291C202.327 26.9505 204.459 25.0452 207.079 25.0452C209.699 25.0452 211.832 26.9505 211.832 29.291C211.832 31.6314 209.699 33.5368 207.079 33.5368ZM207.079 28.0457C206.315 28.0457 205.685 28.6008 205.685 29.291C205.685 29.9736 206.307 30.5362 207.079 30.5362C207.843 30.5362 208.473 29.9811 208.473 29.291C208.473 28.6084 207.843 28.0457 207.079 28.0457Z" fill="url(#paint33_linear)"/>
<path d="M207.079 32.4041C205.156 32.4041 203.603 31.0088 203.603 29.2985C203.603 27.5806 205.165 26.1929 207.079 26.1929C208.994 26.1929 210.555 27.5881 210.555 29.2985C210.555 31.0088 208.994 32.4041 207.079 32.4041C205.156 32.4041 208.994 32.4041 207.079 32.4041ZM207.079 26.913C205.61 26.913 204.417 27.9782 204.417 29.291C204.417 30.6037 205.61 31.6689 207.079 31.6689C208.549 31.6689 209.741 30.6037 209.741 29.291C209.741 27.9782 208.549 26.913 207.079 26.913C205.61 26.913 208.549 26.913 207.079 26.913Z" fill="url(#paint34_linear)"/>
<path d="M207.633 33.9043H206.525C206.273 33.9043 206.03 33.8518 205.82 33.7618C203.586 33.2592 201.924 31.4439 201.924 29.2909C201.924 26.748 204.241 24.6851 207.079 24.6851C209.926 24.6851 212.235 26.7555 212.235 29.2909C212.235 31.4439 210.572 33.2592 208.339 33.7618C208.12 33.8518 207.885 33.9043 207.633 33.9043ZM207.079 28.4133C206.533 28.4133 206.097 28.8109 206.097 29.2909C206.097 29.7785 206.542 30.1686 207.079 30.1686C207.625 30.1686 208.062 29.7785 208.062 29.2909C208.062 28.8033 207.617 28.4133 207.079 28.4133Z" fill="url(#paint35_linear)"/>
<path d="M114.002 17.2661C114.523 17.7462 115.027 18.2338 115.522 18.7289H216.92V17.2661H114.002Z" fill="url(#paint36_linear)"/>
<path d="M216.92 20.2293H115.522C115.044 20.2293 114.59 20.0493 114.271 19.7342C113.784 19.2541 113.297 18.7815 112.793 18.3164C112.323 17.8813 112.189 17.2437 112.457 16.6886C112.718 16.1335 113.331 15.7734 114.002 15.7734H216.92C217.844 15.7734 218.599 16.4486 218.599 17.2737V18.7365C218.599 19.5542 217.852 20.2293 216.92 20.2293Z" fill="url(#paint37_linear)"/>
<path d="M216.752 20.7393C218.448 20.7393 219.825 19.5091 219.825 17.9938C219.825 16.4785 218.448 15.2483 216.752 15.2483C215.056 15.2483 213.679 16.4785 213.679 17.9938C213.679 19.5166 215.056 20.7393 216.752 20.7393Z" fill="url(#paint38_linear)"/>
<path d="M216.752 22.2397C214.132 22.2397 212 20.3343 212 17.9939C212 15.6534 214.132 13.748 216.752 13.748C219.372 13.748 221.505 15.6534 221.505 17.9939C221.496 20.3418 219.363 22.2397 216.752 22.2397ZM216.752 16.7561C215.988 16.7561 215.358 17.3112 215.358 18.0014C215.358 18.684 215.98 19.2466 216.752 19.2466C217.516 19.2466 218.146 18.6915 218.146 18.0014C218.137 17.3112 217.516 16.7561 216.752 16.7561Z" fill="url(#paint39_linear)"/>
<path d="M216.752 21.1069C214.829 21.1069 213.276 19.7117 213.276 18.0013C213.276 16.2835 214.838 14.8958 216.752 14.8958C218.667 14.8958 220.228 16.291 220.228 18.0013C220.228 19.7117 218.667 21.1069 216.752 21.1069C214.829 21.1069 218.667 21.1069 216.752 21.1069ZM216.752 15.6234C215.283 15.6234 214.09 16.6886 214.09 18.0013C214.09 19.3141 215.283 20.3793 216.752 20.3793C218.221 20.3793 219.414 19.3141 219.414 18.0013C219.414 16.6886 218.213 15.6234 216.752 15.6234C215.283 15.6234 218.213 15.6234 216.752 15.6234Z" fill="url(#paint40_linear)"/>
<path d="M217.298 22.6072H216.189C215.938 22.6072 215.694 22.5547 215.484 22.4647C213.251 21.9621 211.588 20.1467 211.588 17.9938C211.588 15.4508 213.906 13.3879 216.744 13.3879C219.59 13.3879 221.899 15.4583 221.899 17.9938C221.899 20.1467 220.237 21.9621 218.003 22.4647C217.793 22.5547 217.558 22.6072 217.298 22.6072ZM216.752 17.1237C216.206 17.1237 215.77 17.5212 215.77 18.0013C215.77 18.4889 216.215 18.879 216.752 18.879C217.298 18.879 217.734 18.4889 217.734 18.0013C217.734 17.5137 217.289 17.1237 216.752 17.1237Z" fill="url(#paint41_linear)"/>
<path d="M142.853 174.114C142.811 174.601 142.769 175.089 142.727 175.577H188.287V174.114H142.853Z" fill="url(#paint42_linear)"/>
<path d="M188.279 177.077H142.719C142.249 177.077 141.804 176.904 141.485 176.597C141.166 176.289 141.006 175.877 141.04 175.464L141.166 174.001C141.233 173.221 141.963 172.621 142.836 172.621H188.271C189.194 172.621 189.95 173.296 189.95 174.121V175.584C189.958 176.402 189.211 177.077 188.279 177.077Z" fill="url(#paint43_linear)"/>
<path d="M188.111 177.587C189.807 177.587 191.184 176.357 191.184 174.841C191.184 173.326 189.807 172.096 188.111 172.096C186.415 172.096 185.038 173.326 185.038 174.841C185.038 176.357 186.415 177.587 188.111 177.587Z" fill="url(#paint44_linear)"/>
<path d="M188.111 179.087C185.491 179.087 183.359 177.182 183.359 174.842C183.359 172.501 185.491 170.596 188.111 170.596C190.731 170.596 192.864 172.501 192.864 174.842C192.855 177.182 190.731 179.087 188.111 179.087ZM188.111 173.604C187.347 173.604 186.717 174.159 186.717 174.849C186.717 175.532 187.339 176.094 188.111 176.094C188.875 176.094 189.505 175.539 189.505 174.849C189.497 174.159 188.875 173.604 188.111 173.604Z" fill="url(#paint45_linear)"/>
<path d="M188.111 177.955C186.188 177.955 184.635 176.559 184.635 174.849C184.635 173.131 186.197 171.743 188.111 171.743C190.026 171.743 191.587 173.139 191.587 174.849C191.587 176.559 190.026 177.955 188.111 177.955C186.188 177.955 190.026 177.955 188.111 177.955ZM188.111 172.464C186.642 172.464 185.449 173.529 185.449 174.842C185.449 176.154 186.642 177.219 188.111 177.219C189.58 177.219 190.773 176.154 190.773 174.842C190.773 173.536 189.58 172.464 188.111 172.464C186.642 172.464 189.58 172.464 188.111 172.464Z" fill="url(#paint46_linear)"/>
<path d="M188.665 179.455H187.557C187.305 179.455 187.062 179.402 186.852 179.312C184.618 178.81 182.956 176.994 182.956 174.841C182.956 172.298 185.273 170.236 188.111 170.236C190.958 170.236 193.267 172.306 193.267 174.841C193.267 176.994 191.604 178.81 189.371 179.312C189.152 179.402 188.917 179.455 188.665 179.455ZM188.111 173.964C187.565 173.964 187.129 174.361 187.129 174.841C187.129 175.329 187.574 175.719 188.111 175.719C188.657 175.719 189.094 175.329 189.094 174.841C189.094 174.361 188.648 173.964 188.111 173.964Z" fill="url(#paint47_linear)"/>
<path d="M141.98 184.173C141.921 184.661 141.862 185.149 141.804 185.636H197.952V184.173H141.98Z" fill="url(#paint48_linear)"/>
<path d="M197.952 187.129H141.804C141.325 187.129 140.872 186.949 140.553 186.626C140.233 186.304 140.082 185.876 140.141 185.456C140.2 184.976 140.267 184.496 140.317 184.023C140.401 183.258 141.124 182.673 141.988 182.673H197.96C198.884 182.673 199.64 183.348 199.64 184.173V185.636C199.631 186.461 198.876 187.129 197.952 187.129Z" fill="url(#paint49_linear)"/>
<path d="M197.776 187.647C199.472 187.647 200.849 186.416 200.849 184.901C200.849 183.386 199.472 182.156 197.776 182.156C196.08 182.156 194.703 183.386 194.703 184.901C194.711 186.416 196.08 187.647 197.776 187.647Z" fill="url(#paint50_linear)"/>
<path d="M197.776 189.147C195.156 189.147 193.023 187.242 193.023 184.901C193.023 182.561 195.156 180.655 197.776 180.655C200.395 180.655 202.528 182.561 202.528 184.901C202.528 187.242 200.395 189.147 197.776 189.147ZM197.776 183.656C197.012 183.656 196.382 184.211 196.382 184.901C196.382 185.584 197.003 186.146 197.776 186.146C198.54 186.146 199.17 185.591 199.17 184.901C199.17 184.218 198.548 183.656 197.776 183.656Z" fill="url(#paint51_linear)"/>
<path d="M197.776 188.007C195.861 188.007 194.299 186.611 194.299 184.901C194.299 183.191 195.861 181.795 197.776 181.795C199.698 181.795 201.252 183.191 201.252 184.901C201.26 186.611 199.698 188.007 197.776 188.007C195.861 188.007 199.698 188.007 197.776 188.007ZM197.776 182.523C196.306 182.523 195.114 183.588 195.114 184.901C195.114 186.214 196.306 187.279 197.776 187.279C199.245 187.279 200.437 186.214 200.437 184.901C200.437 183.588 199.245 182.523 197.776 182.523C196.315 182.523 199.245 182.523 197.776 182.523Z" fill="url(#paint52_linear)"/>
<path d="M198.33 189.507H197.221C196.97 189.507 196.726 189.454 196.516 189.364C194.283 188.862 192.62 187.046 192.62 184.893C192.62 182.351 194.938 180.288 197.776 180.288C200.622 180.288 202.931 182.358 202.931 184.893C202.931 187.046 201.269 188.862 199.035 189.364C198.825 189.462 198.582 189.507 198.33 189.507ZM197.776 184.023C197.238 184.023 196.793 184.421 196.793 184.901C196.793 185.389 197.23 185.779 197.776 185.779C198.321 185.779 198.758 185.381 198.758 184.901C198.758 184.413 198.321 184.023 197.776 184.023Z" fill="url(#paint53_linear)"/>
<path d="M140.057 194.225C139.914 194.713 139.763 195.2 139.604 195.688H207.255V194.225H140.057Z" fill="url(#paint54_linear)"/>
<path d="M207.255 197.188H139.604C139.075 197.188 138.579 196.963 138.26 196.588C137.941 196.213 137.84 195.718 137.992 195.268C138.143 194.795 138.294 194.33 138.428 193.85C138.621 193.19 139.285 192.725 140.057 192.725H207.255C208.179 192.725 208.935 193.4 208.935 194.225V195.688C208.935 196.513 208.179 197.188 207.255 197.188Z" fill="url(#paint55_linear)"/>
<path d="M207.079 197.698C208.775 197.698 210.152 196.468 210.152 194.96C210.152 193.445 208.775 192.215 207.079 192.215C205.383 192.215 204.006 193.445 204.006 194.96C204.006 196.468 205.383 197.698 207.079 197.698Z" fill="url(#paint56_linear)"/>
<path d="M207.079 199.199C204.459 199.199 202.327 197.293 202.327 194.96C202.327 192.62 204.459 190.715 207.079 190.715C209.699 190.715 211.832 192.62 211.832 194.96C211.832 197.293 209.699 199.199 207.079 199.199ZM207.079 193.708C206.315 193.708 205.685 194.263 205.685 194.953C205.685 195.636 206.307 196.191 207.079 196.191C207.843 196.191 208.473 195.636 208.473 194.953C208.473 194.27 207.843 193.708 207.079 193.708Z" fill="url(#paint57_linear)"/>
<path d="M207.079 198.066C205.156 198.066 203.603 196.671 203.603 194.96C203.603 193.242 205.165 191.855 207.079 191.855C208.994 191.855 210.555 193.25 210.555 194.96C210.555 196.671 208.994 198.066 207.079 198.066C205.156 198.066 208.994 198.066 207.079 198.066ZM207.079 192.575C205.61 192.575 204.417 193.64 204.417 194.953C204.417 196.266 205.61 197.331 207.079 197.331C208.549 197.331 209.741 196.266 209.741 194.953C209.741 193.64 208.549 192.575 207.079 192.575C205.61 192.575 208.549 192.575 207.079 192.575Z" fill="url(#paint58_linear)"/>
<path d="M207.633 199.566H206.525C206.273 199.566 206.03 199.514 205.82 199.424C203.586 198.921 201.924 197.106 201.924 194.953C201.924 192.41 204.241 190.347 207.079 190.347C209.926 190.347 212.235 192.417 212.235 194.953C212.235 197.106 210.572 198.921 208.339 199.424C208.12 199.514 207.885 199.566 207.633 199.566ZM207.079 194.075C206.533 194.075 206.097 194.473 206.097 194.953C206.097 195.433 206.542 195.83 207.079 195.83C207.625 195.83 208.062 195.44 208.062 194.953C208.062 194.473 207.617 194.075 207.079 194.075Z" fill="url(#paint59_linear)"/>
<path d="M134.625 205.515C134.255 206.017 133.886 206.498 133.499 206.978H216.928V205.515H134.625Z" fill="url(#paint60_linear)"/>
<path d="M216.92 208.478H133.491C132.861 208.478 132.282 208.163 131.996 207.66C131.711 207.158 131.761 206.558 132.131 206.1C132.5 205.642 132.861 205.177 133.214 204.697C133.525 204.277 134.054 204.015 134.616 204.015H216.92C217.844 204.015 218.599 204.69 218.599 205.515V206.978C218.599 207.803 217.852 208.478 216.92 208.478Z" fill="url(#paint61_linear)"/>
<path d="M216.752 208.988C218.448 208.988 219.825 207.758 219.825 206.243C219.825 204.727 218.448 203.497 216.752 203.497C215.056 203.497 213.679 204.727 213.679 206.243C213.679 207.758 215.056 208.988 216.752 208.988Z" fill="url(#paint62_linear)"/>
<path d="M216.752 210.488C214.132 210.488 212 208.583 212 206.243C212 203.902 214.132 201.997 216.752 201.997C219.372 201.997 221.505 203.902 221.505 206.243C221.496 208.591 219.363 210.488 216.752 210.488ZM216.752 205.005C215.988 205.005 215.358 205.56 215.358 206.25C215.358 206.933 215.98 207.495 216.752 207.495C217.516 207.495 218.146 206.94 218.146 206.25C218.137 205.56 217.516 205.005 216.752 205.005Z" fill="url(#paint63_linear)"/>
<path d="M216.752 209.356C214.829 209.356 213.276 207.96 213.276 206.25C213.276 204.54 214.838 203.145 216.752 203.145C218.667 203.145 220.228 204.54 220.228 206.25C220.228 207.96 218.667 209.356 216.752 209.356C214.829 209.356 218.667 209.356 216.752 209.356ZM216.752 203.872C215.283 203.872 214.09 204.937 214.09 206.25C214.09 207.563 215.283 208.628 216.752 208.628C218.221 208.628 219.414 207.563 219.414 206.25C219.414 204.937 218.213 203.872 216.752 203.872C215.283 203.872 218.213 203.872 216.752 203.872Z" fill="url(#paint64_linear)"/>
<path d="M217.298 210.856H216.189C215.938 210.856 215.694 210.803 215.484 210.713C213.251 210.211 211.588 208.396 211.588 206.243C211.588 203.7 213.906 201.637 216.744 201.637C219.59 201.637 221.899 203.707 221.899 206.243C221.899 208.396 220.237 210.211 218.003 210.713C217.793 210.803 217.558 210.856 217.298 210.856ZM216.752 205.372C216.206 205.372 215.77 205.77 215.77 206.25C215.77 206.738 216.215 207.128 216.752 207.128C217.298 207.128 217.734 206.73 217.734 206.25C217.734 205.763 217.289 205.372 216.752 205.372Z" fill="url(#paint65_linear)"/>
<path d="M222.873 35.0896L193.527 61.3071H131.929C131.988 61.8097 132.064 62.3123 132.122 62.8224H194.232L223.578 36.6049H259.298V35.0896H222.873Z" fill="url(#paint66_linear)"/>
<path d="M194.232 64.3152H132.122C131.257 64.3152 130.535 63.7301 130.451 62.9649C130.418 62.6574 130.376 62.3573 130.334 62.0498L130.258 61.4646C130.208 61.0371 130.359 60.617 130.678 60.3019C130.997 59.9869 131.451 59.7993 131.929 59.7993H192.83L221.681 34.0244C222 33.7393 222.42 33.5818 222.865 33.5818H259.289C260.213 33.5818 260.969 34.2569 260.969 35.0821V36.5974C260.969 37.43 260.213 38.0977 259.289 38.0977H224.259L195.408 63.8726C195.105 64.1577 194.677 64.3152 194.232 64.3152Z" fill="url(#paint67_linear)"/>
<path d="M259.122 38.6827C260.876 38.6827 262.304 37.4074 262.304 35.8396C262.304 34.2718 260.876 32.9966 259.122 32.9966C257.367 32.9966 255.939 34.2718 255.939 35.8396C255.939 37.4149 257.367 38.6827 259.122 38.6827Z" fill="url(#paint68_linear)"/>
<path d="M259.121 40.183C256.443 40.183 254.26 38.2326 254.26 35.8397C254.26 33.4467 256.443 31.4963 259.121 31.4963C261.8 31.4963 263.983 33.4467 263.983 35.8397C263.983 38.2401 261.8 40.183 259.121 40.183ZM259.121 34.4969C258.29 34.4969 257.618 35.097 257.618 35.8397C257.618 36.5823 258.29 37.1824 259.121 37.1824C259.953 37.1824 260.624 36.5823 260.624 35.8397C260.624 35.097 259.944 34.4969 259.121 34.4969Z" fill="url(#paint69_linear)"/>
<path d="M259.121 39.0654C257.131 39.0654 255.519 37.6176 255.519 35.8473C255.519 34.0694 257.14 32.6292 259.121 32.6292C261.111 32.6292 262.724 34.0694 262.724 35.8473C262.724 37.6176 261.111 39.0654 259.121 39.0654C257.131 39.0654 261.111 39.0654 259.121 39.0654ZM259.121 33.3793C257.602 33.3793 256.359 34.482 256.359 35.8473C256.359 37.205 257.593 38.3152 259.121 38.3152C260.641 38.3152 261.884 37.2125 261.884 35.8473C261.876 34.482 260.641 33.3793 259.121 33.3793C257.602 33.3793 260.641 33.3793 259.121 33.3793Z" fill="url(#paint70_linear)"/>
<path d="M259.692 40.5657H258.542C258.29 40.5657 258.047 40.5131 257.828 40.4231C255.536 39.9055 253.832 38.0527 253.832 35.8397C253.832 33.2367 256.199 31.1213 259.113 31.1213C262.027 31.1213 264.395 33.2367 264.395 35.8397C264.395 38.0452 262.69 39.9055 260.398 40.4231C260.188 40.5131 259.944 40.5657 259.692 40.5657ZM259.121 34.8796C258.525 34.8796 258.038 35.3146 258.038 35.8472C258.038 36.3799 258.525 36.8149 259.121 36.8149C259.718 36.8149 260.205 36.3799 260.205 35.8472C260.205 35.3146 259.718 34.8796 259.121 34.8796Z" fill="url(#paint71_linear)"/>
<path d="M222.873 57.3914L193.527 83.6089H132.76C132.76 84.1115 132.76 84.6216 132.76 85.1242H194.232L223.578 58.9067H259.298V57.3914H222.873Z" fill="url(#paint72_linear)"/>
<path d="M194.232 86.6245H132.76C131.837 86.6245 131.09 85.9569 131.081 85.1392C131.081 84.6291 131.073 84.119 131.081 83.6014C131.09 82.7763 131.837 82.1087 132.76 82.1087H192.838L221.689 56.3337C222.008 56.0486 222.428 55.8911 222.873 55.8911H259.298C260.221 55.8911 260.977 56.5662 260.977 57.3914V58.9067C260.977 59.7394 260.221 60.407 259.298 60.407H224.267L195.416 86.1819C195.105 86.467 194.677 86.6245 194.232 86.6245Z" fill="url(#paint73_linear)"/>
<path d="M259.121 60.992C260.876 60.992 262.304 59.7168 262.304 58.149C262.304 56.5812 260.876 55.3059 259.121 55.3059C257.366 55.3059 255.939 56.5812 255.939 58.149C255.939 59.7243 257.366 60.992 259.121 60.992Z" fill="url(#paint74_linear)"/>
<path d="M259.121 62.4923C256.443 62.4923 254.26 60.542 254.26 58.149C254.26 55.756 256.443 53.8057 259.121 53.8057C261.8 53.8057 263.983 55.756 263.983 58.149C263.983 60.542 261.8 62.4923 259.121 62.4923ZM259.121 56.8062C258.29 56.8062 257.618 57.4064 257.618 58.149C257.618 58.8916 258.29 59.4918 259.121 59.4918C259.953 59.4918 260.624 58.8916 260.624 58.149C260.624 57.4139 259.944 56.8062 259.121 56.8062Z" fill="url(#paint75_linear)"/>
<path d="M259.121 61.3746C257.131 61.3746 255.519 59.9269 255.519 58.149C255.519 56.3712 257.14 54.9309 259.121 54.9309C261.111 54.9309 262.724 56.3787 262.724 58.149C262.724 59.9269 261.111 61.3746 259.121 61.3746C257.131 61.3746 261.111 61.3746 259.121 61.3746ZM259.121 55.6886C257.602 55.6886 256.359 56.7913 256.359 58.1565C256.359 59.5218 257.593 60.6245 259.121 60.6245C260.641 60.6245 261.884 59.5218 261.884 58.1565C261.884 56.7913 260.641 55.6886 259.121 55.6886C257.602 55.6886 260.641 55.6886 259.121 55.6886Z" fill="url(#paint76_linear)"/>
<path d="M259.692 62.875H258.542C258.29 62.875 258.047 62.8225 257.828 62.7325C255.536 62.2149 253.832 60.362 253.832 58.1491C253.832 55.5461 256.199 53.4307 259.113 53.4307C262.027 53.4307 264.395 55.5461 264.395 58.1491C264.395 60.3545 262.69 62.2149 260.398 62.7325C260.188 62.8225 259.944 62.875 259.692 62.875ZM259.121 57.1889C258.525 57.1889 258.038 57.624 258.038 58.1566C258.038 58.6892 258.525 59.1243 259.121 59.1243C259.718 59.1243 260.205 58.6892 260.205 58.1566C260.196 57.6165 259.718 57.1889 259.121 57.1889Z" fill="url(#paint77_linear)"/>
<path d="M222.84 70.1138L196.163 93.9459H133.802C133.835 94.0359 133.86 94.1259 133.902 94.2384C134.037 94.6435 134.179 95.0561 134.322 95.4611H196.86L224.032 71.1865L222.84 70.1138Z" fill="url(#paint78_linear)"/>
<path d="M196.869 96.9539H134.331C133.592 96.9539 132.945 96.5264 132.727 95.9038L132.66 95.7237C132.534 95.3711 132.416 95.0261 132.299 94.6735L132.198 94.3885C132.047 93.9309 132.139 93.4433 132.458 93.0607C132.777 92.6781 133.273 92.4531 133.81 92.4531H195.475L221.656 69.0636C222.311 68.4785 223.377 68.4785 224.032 69.0636L225.233 70.1363C225.552 70.4213 225.728 70.7964 225.728 71.194C225.728 71.5916 225.552 71.9742 225.233 72.2517L198.061 96.5264C197.742 96.7964 197.314 96.9539 196.869 96.9539Z" fill="url(#paint79_linear)"/>
<path d="M225.56 72.777C226.803 71.6668 226.803 69.8665 225.56 68.7562C224.317 67.646 222.302 67.646 221.06 68.7562C219.817 69.8665 219.817 71.6668 221.06 72.777C222.302 73.8872 224.317 73.8872 225.56 72.777Z" fill="url(#paint80_linear)"/>
<path d="M223.31 75.1099C222.008 75.1099 220.791 74.6599 219.876 73.8347C217.978 72.1394 217.978 69.3863 219.876 67.691C220.791 66.8734 222.017 66.4158 223.31 66.4158C224.611 66.4158 225.829 66.8659 226.744 67.691C228.642 69.3863 228.642 72.1394 226.744 73.8347C225.829 74.6524 224.611 75.1099 223.31 75.1099ZM223.31 69.4163C222.907 69.4163 222.529 69.5589 222.243 69.8139C221.656 70.339 221.656 71.1867 222.243 71.7118C222.814 72.2219 223.805 72.2219 224.368 71.7118C224.956 71.1867 224.956 70.339 224.368 69.8139C224.091 69.5589 223.713 69.4163 223.31 69.4163Z" fill="url(#paint81_linear)"/>
<path d="M225.862 73.0393C224.46 74.292 222.168 74.292 220.766 73.0393C219.363 71.7866 219.363 69.7387 220.766 68.4859C222.168 67.2332 224.46 67.2332 225.862 68.4859C227.265 69.7387 227.265 71.7866 225.862 73.0393C224.452 74.292 227.265 71.7866 225.862 73.0393ZM221.362 69.0185C220.287 69.9787 220.287 71.5465 221.362 72.5067C222.437 73.4669 224.191 73.4669 225.266 72.5067C226.341 71.5465 226.341 69.9787 225.266 69.0185C224.183 68.0584 222.437 68.0584 221.362 69.0185C220.279 69.9787 222.437 68.0584 221.362 69.0185Z" fill="url(#paint82_linear)"/>
<path d="M223.31 75.4849C221.899 75.4849 220.572 74.9973 219.573 74.1047C218.574 73.212 218.028 72.0268 218.028 70.7665C218.028 69.5063 218.574 68.321 219.573 67.4284C220.572 66.5357 221.899 66.0481 223.31 66.0481C224.72 66.0481 226.047 66.5357 227.046 67.4284C228.046 68.321 228.591 69.5063 228.591 70.7665C228.591 71.6517 228.323 72.5068 227.81 73.242C227.475 73.9996 226.584 74.5397 226.358 74.6748C226.257 74.7348 226.148 74.7798 226.03 74.8173C225.216 75.2524 224.284 75.4849 223.31 75.4849ZM222.546 70.0839C222.344 70.2639 222.227 70.504 222.227 70.7665C222.227 71.0216 222.336 71.2691 222.546 71.4491C222.957 71.8167 223.662 71.8167 224.074 71.4491C224.275 71.2691 224.393 71.0216 224.393 70.7665C224.393 70.5115 224.284 70.2639 224.074 70.0839C223.662 69.7163 222.949 69.7163 222.546 70.0839Z" fill="url(#paint83_linear)"/>
<path d="M222.873 47.062L193.527 73.2796H132.928C132.937 73.7822 132.945 74.2848 132.945 74.7949H194.232L223.578 48.5848H276.234V47.0695H222.873V47.062Z" fill="url(#paint84_linear)"/>
<path d="M194.232 76.2877H132.945C132.022 76.2877 131.266 75.62 131.266 74.7874C131.266 74.2923 131.257 73.7972 131.249 73.3096C131.241 72.9045 131.409 72.5144 131.728 72.2294C132.047 71.9443 132.475 71.7793 132.928 71.7793H192.838L221.689 46.0043C222.008 45.7193 222.428 45.5618 222.873 45.5618H276.225C277.149 45.5618 277.905 46.2369 277.905 47.0621V48.5773C277.905 49.41 277.149 50.0776 276.225 50.0776H224.267L195.416 75.8526C195.105 76.1301 194.677 76.2877 194.232 76.2877Z" fill="url(#paint85_linear)"/>
<path d="M276.049 50.6627C277.804 50.6627 279.231 49.3874 279.231 47.8196C279.231 46.2518 277.804 44.9766 276.049 44.9766C274.294 44.9766 272.867 46.2518 272.867 47.8196C272.867 49.3874 274.294 50.6627 276.049 50.6627Z" fill="url(#paint86_linear)"/>
<path d="M276.049 52.163C273.37 52.163 271.187 50.2126 271.187 47.8197C271.187 45.4267 273.37 43.4763 276.049 43.4763C278.727 43.4763 280.911 45.4267 280.911 47.8197C280.911 50.2126 278.727 52.163 276.049 52.163ZM276.049 46.4694C275.218 46.4694 274.546 47.0695 274.546 47.8122C274.546 48.5548 275.218 49.1549 276.049 49.1549C276.88 49.1549 277.552 48.5548 277.552 47.8122C277.552 47.077 276.88 46.4694 276.049 46.4694Z" fill="url(#paint87_linear)"/>
<path d="M276.049 51.0377C274.059 51.0377 272.447 49.59 272.447 47.8196C272.447 46.0418 274.067 44.594 276.049 44.594C278.039 44.594 279.651 46.0418 279.651 47.8196C279.651 49.59 278.039 51.0377 276.049 51.0377C274.059 51.0377 278.039 51.0377 276.049 51.0377ZM276.049 45.3516C274.529 45.3516 273.286 46.4544 273.286 47.8196C273.286 49.1774 274.521 50.2801 276.049 50.2801C277.569 50.2801 278.811 49.1774 278.811 47.8196C278.811 46.4544 277.569 45.3516 276.049 45.3516C274.529 45.3516 277.569 45.3516 276.049 45.3516Z" fill="url(#paint88_linear)"/>
<path d="M276.62 52.538H275.47C275.218 52.538 274.974 52.4855 274.756 52.3955C272.464 51.8779 270.759 50.025 270.759 47.8121C270.759 45.2091 273.127 43.0862 276.04 43.0862C278.954 43.0862 281.322 45.2091 281.322 47.8121C281.322 50.0175 279.617 51.8779 277.325 52.3955C277.115 52.4855 276.88 52.538 276.62 52.538ZM276.049 46.8519C275.453 46.8519 274.966 47.287 274.966 47.8196C274.966 48.3522 275.453 48.7798 276.049 48.7798C276.645 48.7798 277.132 48.3522 277.132 47.8196C277.132 47.287 276.645 46.8519 276.049 46.8519Z" fill="url(#paint89_linear)"/>
<path d="M223.578 187.646L194.232 161.429H143.97C143.928 161.931 143.886 162.441 143.836 162.944H193.527L222.873 189.162H259.298V187.646H223.578Z" fill="url(#paint90_linear)"/>
<path d="M259.298 190.662H222.873C222.428 190.662 222 190.504 221.689 190.219L192.838 164.444H143.844C143.374 164.444 142.929 164.272 142.61 163.964C142.291 163.657 142.131 163.244 142.165 162.832L142.299 161.324C142.366 160.544 143.097 159.936 143.97 159.936H194.232C194.677 159.936 195.105 160.094 195.416 160.379L224.267 186.154H259.298C260.221 186.154 260.977 186.829 260.977 187.654V189.169C260.977 189.987 260.23 190.662 259.298 190.662Z" fill="url(#paint91_linear)"/>
<path d="M259.122 191.247C260.876 191.247 262.304 189.972 262.304 188.404C262.304 186.836 260.876 185.561 259.122 185.561C257.367 185.561 255.939 186.836 255.939 188.404C255.939 189.972 257.367 191.247 259.122 191.247Z" fill="url(#paint92_linear)"/>
<path d="M259.121 192.747C256.443 192.747 254.26 190.797 254.26 188.404C254.26 186.011 256.443 184.061 259.121 184.061C261.8 184.061 263.983 186.011 263.983 188.404C263.983 190.797 261.8 192.747 259.121 192.747ZM259.121 187.061C258.29 187.061 257.618 187.661 257.618 188.404C257.618 189.147 258.29 189.747 259.121 189.747C259.953 189.747 260.624 189.147 260.624 188.404C260.624 187.661 259.944 187.061 259.121 187.061Z" fill="url(#paint93_linear)"/>
<path d="M259.121 191.622C257.131 191.622 255.519 190.174 255.519 188.404C255.519 186.626 257.14 185.186 259.121 185.186C261.111 185.186 262.724 186.634 262.724 188.404C262.724 190.174 261.111 191.622 259.121 191.622C257.131 191.622 261.111 191.622 259.121 191.622ZM259.121 185.936C257.602 185.936 256.359 187.039 256.359 188.404C256.359 189.769 257.593 190.872 259.121 190.872C260.641 190.872 261.884 189.769 261.884 188.404C261.884 187.039 260.641 185.936 259.121 185.936C257.602 185.936 260.641 185.936 259.121 185.936Z" fill="url(#paint94_linear)"/>
<path d="M259.692 193.123H258.542C258.29 193.123 258.047 193.07 257.828 192.98C255.536 192.462 253.832 190.61 253.832 188.397C253.832 185.794 256.199 183.678 259.113 183.678C262.027 183.678 264.395 185.794 264.395 188.397C264.395 190.602 262.69 192.462 260.398 192.98C260.188 193.07 259.944 193.123 259.692 193.123ZM259.121 187.436C258.525 187.436 258.038 187.872 258.038 188.404C258.038 188.937 258.525 189.372 259.121 189.372C259.718 189.372 260.205 188.937 260.205 188.404C260.196 187.872 259.718 187.436 259.121 187.436Z" fill="url(#paint95_linear)"/>
<path d="M223.578 165.337L194.232 139.12H145.062C145.062 139.622 145.07 140.125 145.07 140.635H193.527L222.873 166.845H259.298V165.33H223.578V165.337Z" fill="url(#paint96_linear)"/>
<path d="M259.298 168.353H222.873C222.428 168.353 222 168.195 221.689 167.91L192.838 142.135H145.07C144.625 142.135 144.197 141.978 143.878 141.692C143.559 141.407 143.391 141.025 143.391 140.627C143.391 140.177 143.391 139.727 143.382 139.285V139.135C143.382 138.737 143.559 138.347 143.869 138.069C144.188 137.784 144.617 137.627 145.062 137.627H194.232C194.677 137.627 195.105 137.784 195.416 138.069L224.267 163.844H259.298C260.221 163.844 260.977 164.519 260.977 165.345V166.86C260.977 167.677 260.23 168.353 259.298 168.353Z" fill="url(#paint97_linear)"/>
<path d="M259.122 168.938C260.876 168.938 262.304 167.663 262.304 166.095C262.304 164.527 260.876 163.252 259.122 163.252C257.367 163.252 255.939 164.527 255.939 166.095C255.939 167.663 257.367 168.938 259.122 168.938Z" fill="url(#paint98_linear)"/>
<path d="M259.121 170.438C256.443 170.438 254.26 168.488 254.26 166.095C254.26 163.702 256.443 161.751 259.121 161.751C261.8 161.751 263.983 163.702 263.983 166.095C263.983 168.488 261.8 170.438 259.121 170.438ZM259.121 164.752C258.29 164.752 257.618 165.352 257.618 166.095C257.618 166.837 258.29 167.438 259.121 167.438C259.953 167.438 260.624 166.837 260.624 166.095C260.624 165.352 259.944 164.752 259.121 164.752Z" fill="url(#paint99_linear)"/>
<path d="M259.121 169.313C257.131 169.313 255.519 167.865 255.519 166.095C255.519 164.324 257.14 162.877 259.121 162.877C261.111 162.877 262.724 164.324 262.724 166.095C262.724 167.865 261.111 169.313 259.121 169.313C257.131 169.313 261.111 169.313 259.121 169.313ZM259.121 163.627C257.602 163.627 256.359 164.73 256.359 166.095C256.359 167.453 257.593 168.563 259.121 168.563C260.641 168.563 261.884 167.46 261.884 166.095C261.876 164.737 260.641 163.627 259.121 163.627C257.602 163.627 260.641 163.627 259.121 163.627Z" fill="url(#paint100_linear)"/>
<path d="M259.692 170.813H258.542C258.29 170.813 258.047 170.761 257.828 170.671C255.536 170.153 253.832 168.3 253.832 166.087C253.832 163.484 256.199 161.369 259.113 161.369C262.027 161.369 264.395 163.484 264.395 166.087C264.395 168.293 262.69 170.153 260.398 170.671C260.188 170.768 259.944 170.813 259.692 170.813ZM259.121 165.127C258.525 165.127 258.038 165.562 258.038 166.095C258.038 166.627 258.525 167.062 259.121 167.062C259.718 167.062 260.205 166.627 260.205 166.095C260.205 165.562 259.718 165.127 259.121 165.127Z" fill="url(#paint101_linear)"/>
<path d="M196.869 128.79H144.507C144.558 129.293 144.608 129.795 144.65 130.305H196.163L222.84 154.137L224.04 153.065L196.869 128.79Z" fill="url(#paint102_linear)"/>
<path d="M222.84 155.63C222.395 155.63 221.966 155.473 221.656 155.188L195.475 131.798H144.659C143.785 131.798 143.055 131.198 142.988 130.425C142.937 129.908 142.895 129.42 142.845 128.933C142.803 128.513 142.954 128.092 143.273 127.777C143.592 127.462 144.046 127.29 144.516 127.29H196.877C197.322 127.29 197.75 127.447 198.061 127.732L225.233 152.007C225.888 152.592 225.888 153.545 225.233 154.13L224.032 155.203C223.713 155.473 223.285 155.63 222.84 155.63Z" fill="url(#paint103_linear)"/>
<path d="M221.059 155.495C222.302 156.606 224.317 156.606 225.56 155.495C226.803 154.385 226.803 152.585 225.56 151.475C224.317 150.364 222.302 150.364 221.059 151.475C219.817 152.585 219.817 154.385 221.059 155.495Z" fill="url(#paint104_linear)"/>
<path d="M223.31 157.828C222.008 157.828 220.791 157.378 219.876 156.553C217.978 154.858 217.978 152.105 219.876 150.409C220.791 149.592 222.017 149.134 223.31 149.134C224.611 149.134 225.829 149.584 226.744 150.409C228.642 152.105 228.642 154.858 226.744 156.553C225.829 157.371 224.611 157.828 223.31 157.828ZM223.31 152.142C222.907 152.142 222.529 152.285 222.243 152.54C221.656 153.065 221.656 153.912 222.243 154.438C222.814 154.948 223.805 154.948 224.368 154.438C224.955 153.912 224.955 153.065 224.368 152.54C224.091 152.277 223.713 152.142 223.31 152.142Z" fill="url(#paint105_linear)"/>
<path d="M220.757 155.758C219.355 154.505 219.355 152.457 220.757 151.204C222.159 149.952 224.452 149.952 225.854 151.204C227.256 152.465 227.256 154.505 225.854 155.758C224.452 157.018 222.168 157.018 220.757 155.758C219.355 154.505 222.168 157.018 220.757 155.758ZM225.258 151.737C224.183 150.777 222.428 150.777 221.353 151.737C220.279 152.697 220.279 154.265 221.353 155.225C222.428 156.185 224.183 156.185 225.258 155.225C226.333 154.265 226.333 152.697 225.258 151.737C224.183 150.777 226.333 152.697 225.258 151.737Z" fill="url(#paint106_linear)"/>
<path d="M223.31 158.203C222.336 158.203 221.404 157.971 220.589 157.536C220.556 157.521 220.514 157.513 220.48 157.498C220.48 157.498 220.446 157.483 220.404 157.461C220.304 157.416 220.211 157.363 220.127 157.296C219.733 157.048 219.103 156.575 218.826 155.983C218.305 155.24 218.037 154.385 218.037 153.492C218.037 152.232 218.582 151.047 219.582 150.154C220.581 149.262 221.907 148.774 223.318 148.774C224.729 148.774 226.055 149.262 227.055 150.154C228.054 151.047 228.6 152.232 228.6 153.492C228.6 154.753 228.054 155.938 227.055 156.83C226.047 157.708 224.72 158.203 223.31 158.203ZM223.31 152.517C223.024 152.517 222.747 152.615 222.546 152.802C222.344 152.982 222.227 153.23 222.227 153.485C222.227 153.74 222.336 153.987 222.546 154.167C222.957 154.535 223.662 154.535 224.074 154.167C224.275 153.987 224.393 153.74 224.393 153.485C224.393 153.23 224.284 152.982 224.074 152.802C223.872 152.615 223.595 152.517 223.31 152.517Z" fill="url(#paint107_linear)"/>
<path d="M223.578 175.674L194.232 149.457H144.81C144.784 149.959 144.768 150.462 144.734 150.972H193.535L222.881 177.189H298.98V175.674H223.578Z" fill="url(#paint108_linear)"/>
<path d="M298.972 178.682H222.873C222.428 178.682 222 178.525 221.689 178.24L192.838 152.465H144.734C144.272 152.465 143.836 152.3 143.517 152C143.197 151.699 143.03 151.302 143.055 150.889C143.072 150.559 143.088 150.229 143.105 149.899L143.13 149.381C143.172 148.579 143.911 147.949 144.81 147.949H194.232C194.677 147.949 195.105 148.106 195.416 148.391L224.267 174.166H298.972C299.895 174.166 300.651 174.841 300.651 175.667V177.182C300.651 178.015 299.904 178.682 298.972 178.682Z" fill="url(#paint109_linear)"/>
<path d="M298.796 179.267C300.551 179.267 301.978 177.992 301.978 176.424C301.978 174.856 300.551 173.581 298.796 173.581C297.041 173.581 295.613 174.856 295.613 176.424C295.613 177.999 297.041 179.267 298.796 179.267Z" fill="url(#paint110_linear)"/>
<path d="M298.796 180.767C296.117 180.767 293.934 178.817 293.934 176.424C293.934 174.031 296.117 172.081 298.796 172.081C301.474 172.081 303.657 174.031 303.657 176.424C303.657 178.825 301.474 180.767 298.796 180.767ZM298.796 175.081C297.964 175.081 297.292 175.681 297.292 176.424C297.292 177.167 297.964 177.767 298.796 177.767C299.627 177.767 300.299 177.167 300.299 176.424C300.299 175.689 299.627 175.081 298.796 175.081Z" fill="url(#paint111_linear)"/>
<path d="M298.796 179.65C296.806 179.65 295.193 178.202 295.193 176.424C295.193 174.646 296.814 173.206 298.796 173.206C300.786 173.206 302.398 174.654 302.398 176.424C302.398 178.202 300.786 179.65 298.796 179.65C296.806 179.65 300.786 179.65 298.796 179.65ZM298.796 173.964C297.276 173.964 296.033 175.066 296.033 176.432C296.033 177.797 297.267 178.9 298.796 178.9C300.315 178.9 301.558 177.797 301.558 176.432C301.558 175.066 300.315 173.964 298.796 173.964C297.276 173.964 300.315 173.964 298.796 173.964Z" fill="url(#paint112_linear)"/>
<path d="M299.366 181.15H298.216C297.964 181.15 297.721 181.098 297.502 181.008C295.21 180.49 293.506 178.637 293.506 176.424C293.506 173.821 295.873 171.706 298.787 171.706C301.701 171.706 304.069 173.821 304.069 176.424C304.069 178.63 302.364 180.49 300.072 181.008C299.862 181.098 299.627 181.15 299.366 181.15ZM298.795 175.464C298.199 175.464 297.712 175.899 297.712 176.432C297.712 176.964 298.199 177.399 298.795 177.399C299.392 177.399 299.879 176.964 299.879 176.432C299.879 175.899 299.392 175.464 298.795 175.464Z" fill="url(#paint113_linear)"/>
<path d="M44.218 104.215V57.8338C44.218 40.1979 60.2807 25.8477 80.0128 25.8477C99.7533 25.8477 115.808 40.1979 115.808 57.8338V104.208H142.089V57.8338C142.098 27.2505 114.254 2.36816 80.0212 2.36816C45.7881 2.36816 17.9365 27.2505 17.9365 57.8338V104.208H44.218V104.215Z" fill="#0084F8"/>
<path d="M142.098 105.716H115.816C114.892 105.716 114.137 105.048 114.137 104.215V57.8339C114.137 41.0231 98.8297 27.348 80.0212 27.348C61.2044 27.348 45.9057 41.0231 45.9057 57.8339V104.208C45.9057 105.04 45.15 105.708 44.2264 105.708H17.9365C17.0129 105.708 16.2572 105.04 16.2572 104.208V57.8339C16.2572 26.4253 44.8561 0.86792 80.0212 0.86792C115.178 0.86792 143.785 26.4253 143.785 57.8339V104.208C143.777 105.04 143.03 105.716 142.098 105.716ZM117.495 102.715H140.418V57.8339C140.418 28.0757 113.322 3.8685 80.0212 3.8685C46.7118 3.8685 19.6159 28.0757 19.6159 57.8339V102.708H42.5471V57.8339C42.5471 39.3728 59.3571 24.3474 80.0212 24.3474C100.685 24.3474 117.495 39.3728 117.495 57.8339V102.715Z" fill="#0084F8"/>
<path d="M158.345 197.196C158.345 209.986 146.741 220.36 132.425 220.36H27.6179C13.2932 220.368 1.68909 209.993 1.68909 197.196V117.493C1.68909 104.695 13.2932 94.3284 27.6179 94.3284H132.425C146.741 94.3284 158.345 104.695 158.345 117.493V197.196Z" fill="white"/>
<path d="M132.425 221.868H27.6179C12.3948 221.868 0.00976562 210.803 0.00976562 197.196V117.493C0.00976562 103.893 12.3948 92.8281 27.6179 92.8281H132.425C147.648 92.8281 160.024 103.893 160.024 117.493V197.203C160.024 210.803 147.648 221.868 132.425 221.868ZM27.6179 95.8287C14.2421 95.8287 3.36842 105.551 3.36842 117.493V197.203C3.36842 209.153 14.2421 218.867 27.6179 218.867H132.425C145.792 218.867 156.666 209.146 156.666 197.203V117.493C156.666 105.551 145.792 95.8287 132.425 95.8287H27.6179Z" fill="url(#paint114_linear)"/>
<path d="M86.9988 163.409C95.471 160.814 101.559 153.65 101.559 145.203C101.559 134.574 91.9109 125.962 80.0128 125.962C68.1148 125.962 58.4755 134.574 58.4755 145.203C58.4755 153.65 64.563 160.814 73.0352 163.409L70.4491 169.905L60.8937 193.955H80.0212H99.1404L89.585 169.905L86.9988 163.409Z" fill="url(#paint115_linear)"/>
<path d="M99.1404 195.455H60.8937C60.3479 195.455 59.8357 195.223 59.5251 194.818C59.206 194.42 59.1304 193.91 59.3152 193.453L70.9109 164.287C62.4051 161.046 56.8046 153.56 56.8046 145.211C56.8046 133.771 67.2248 124.469 80.0213 124.469C92.8261 124.469 103.246 133.779 103.246 145.211C103.246 153.567 97.6458 161.054 89.14 164.287L100.736 193.453C100.92 193.91 100.836 194.42 100.526 194.818C100.198 195.215 99.6862 195.455 99.1404 195.455ZM63.27 192.455H96.7557L85.4119 163.912C85.2607 163.537 85.2859 163.117 85.4791 162.757C85.6722 162.397 86.0248 162.119 86.4447 161.991C94.4719 159.531 99.8709 152.787 99.8709 145.203C99.8709 135.421 90.9621 127.462 80.0045 127.462C69.0552 127.462 60.1464 135.421 60.1464 145.203C60.1464 152.787 65.5455 159.531 73.5726 161.991C74.0009 162.119 74.3451 162.397 74.5383 162.757C74.7314 163.117 74.7566 163.537 74.6054 163.912L63.27 192.455Z" fill="url(#paint116_linear)"/>
</g>
<defs>
<linearGradient id="paint0_linear" x1="150.006" y1="104.189" x2="150.997" y2="92.2115" gradientUnits="userSpaceOnUse">
<stop stop-color="#0084F8"/>
<stop offset="1" stop-color="#58C2F1"/>
</linearGradient>
<linearGradient id="paint1_linear" x1="148.592" y1="105.117" x2="156.792" y2="71.1573" gradientUnits="userSpaceOnUse">
<stop stop-color="#0084F8"/>
<stop offset="1" stop-color="#58C2F1"/>
</linearGradient>
<linearGradient id="paint2_linear" x1="294.469" y1="105.479" x2="300.177" y2="104.748" gradientUnits="userSpaceOnUse">
<stop stop-color="#0084F8"/>
<stop offset="1" stop-color="#58C2F1"/>
</linearGradient>
<linearGradient id="paint3_linear" x1="293.054" y1="106.408" x2="301.774" y2="105.29" gradientUnits="userSpaceOnUse">
<stop stop-color="#0084F8"/>
<stop offset="1" stop-color="#58C2F1"/>
</linearGradient>
<linearGradient id="paint4_linear" x1="294.115" y1="105.719" x2="300.576" y2="104.891" gradientUnits="userSpaceOnUse">
<stop stop-color="#0084F8"/>
<stop offset="1" stop-color="#58C2F1"/>
</linearGradient>
<linearGradient id="paint5_linear" x1="292.7" y1="106.646" x2="302.174" y2="105.432" gradientUnits="userSpaceOnUse">
<stop stop-color="#0084F8"/>
<stop offset="1" stop-color="#58C2F1"/>
</linearGradient>
<linearGradient id="paint6_linear" x1="154.878" y1="112.591" x2="155.764" y2="100.596" gradientUnits="userSpaceOnUse">
<stop stop-color="#0084F8"/>
<stop offset="1" stop-color="#58C2F1"/>
</linearGradient>
<linearGradient id="paint7_linear" x1="153.468" y1="113.519" x2="160.886" y2="79.1815" gradientUnits="userSpaceOnUse">
<stop stop-color="#0084F8"/>
<stop offset="1" stop-color="#58C2F1"/>
</linearGradient>
<linearGradient id="paint8_linear" x1="317.039" y1="113.881" x2="322.747" y2="113.149" gradientUnits="userSpaceOnUse">
<stop stop-color="#0084F8"/>
<stop offset="1" stop-color="#58C2F1"/>
</linearGradient>
<linearGradient id="paint9_linear" x1="315.624" y1="114.809" x2="324.344" y2="113.691" gradientUnits="userSpaceOnUse">
<stop stop-color="#0084F8"/>
<stop offset="1" stop-color="#58C2F1"/>
</linearGradient>
<linearGradient id="paint10_linear" x1="316.685" y1="114.121" x2="323.146" y2="113.292" gradientUnits="userSpaceOnUse">
<stop stop-color="#0084F8"/>
<stop offset="1" stop-color="#58C2F1"/>
</linearGradient>
<linearGradient id="paint11_linear" x1="315.27" y1="115.048" x2="324.744" y2="113.834" gradientUnits="userSpaceOnUse">
<stop stop-color="#0084F8"/>
<stop offset="1" stop-color="#58C2F1"/>
</linearGradient>
<linearGradient id="paint12_linear" x1="155.22" y1="120.992" x2="156.247" y2="109.021" gradientUnits="userSpaceOnUse">
<stop stop-color="#0084F8"/>
<stop offset="1" stop-color="#58C2F1"/>
</linearGradient>
<linearGradient id="paint13_linear" x1="153.809" y1="121.921" x2="162.269" y2="88.0968" gradientUnits="userSpaceOnUse">
<stop stop-color="#0084F8"/>
<stop offset="1" stop-color="#58C2F1"/>
</linearGradient>
<linearGradient id="paint14_linear" x1="294.469" y1="122.283" x2="300.177" y2="121.551" gradientUnits="userSpaceOnUse">
<stop stop-color="#0084F8"/>
<stop offset="1" stop-color="#58C2F1"/>
</linearGradient>
<linearGradient id="paint15_linear" x1="293.054" y1="123.211" x2="301.774" y2="122.093" gradientUnits="userSpaceOnUse">
<stop stop-color="#0084F8"/>
<stop offset="1" stop-color="#58C2F1"/>
</linearGradient>
<linearGradient id="paint16_linear" x1="294.115" y1="122.515" x2="300.576" y2="121.686" gradientUnits="userSpaceOnUse">
<stop stop-color="#0084F8"/>
<stop offset="1" stop-color="#58C2F1"/>
</linearGradient>
<linearGradient id="paint17_linear" x1="292.7" y1="123.442" x2="302.174" y2="122.228" gradientUnits="userSpaceOnUse">
<stop stop-color="#0084F8"/>
<stop offset="1" stop-color="#58C2F1"/>
</linearGradient>
<linearGradient id="paint18_linear" x1="134.434" y1="49.8512" x2="136.861" y2="38.7398" gradientUnits="userSpaceOnUse">
<stop stop-color="#0084F8"/>
<stop offset="1" stop-color="#58C2F1"/>
</linearGradient>
<linearGradient id="paint19_linear" x1="133.005" y1="50.781" x2="148.993" y2="25.3817" gradientUnits="userSpaceOnUse">
<stop stop-color="#0084F8"/>
<stop offset="1" stop-color="#58C2F1"/>
</linearGradient>
<linearGradient id="paint20_linear" x1="185.522" y1="51.0937" x2="191.034" y2="50.387" gradientUnits="userSpaceOnUse">
<stop stop-color="#0084F8"/>
<stop offset="1" stop-color="#58C2F1"/>
</linearGradient>
<linearGradient id="paint21_linear" x1="184.107" y1="52.0221" x2="192.632" y2="50.9292" gradientUnits="userSpaceOnUse">
<stop stop-color="#0084F8"/>
<stop offset="1" stop-color="#58C2F1"/>
</linearGradient>
<linearGradient id="paint22_linear" x1="185.182" y1="51.3241" x2="191.418" y2="50.5247" gradientUnits="userSpaceOnUse">
<stop stop-color="#0084F8"/>
<stop offset="1" stop-color="#58C2F1"/>
</linearGradient>
<linearGradient id="paint23_linear" x1="183.768" y1="52.2509" x2="193.015" y2="51.0662" gradientUnits="userSpaceOnUse">
<stop stop-color="#0084F8"/>
<stop offset="1" stop-color="#58C2F1"/>
</linearGradient>
<linearGradient id="paint24_linear" x1="132.882" y1="39.7992" x2="134.92" y2="28.526" gradientUnits="userSpaceOnUse">
<stop stop-color="#0084F8"/>
<stop offset="1" stop-color="#58C2F1"/>
</linearGradient>
<linearGradient id="paint25_linear" x1="131.475" y1="40.729" x2="146.082" y2="12.9464" gradientUnits="userSpaceOnUse">
<stop stop-color="#0084F8"/>
<stop offset="1" stop-color="#58C2F1"/>
</linearGradient>
<linearGradient id="paint26_linear" x1="195.187" y1="41.0417" x2="200.699" y2="40.335" gradientUnits="userSpaceOnUse">
<stop stop-color="#0084F8"/>
<stop offset="1" stop-color="#58C2F1"/>
</linearGradient>
<linearGradient id="paint27_linear" x1="193.772" y1="41.9701" x2="202.296" y2="40.8772" gradientUnits="userSpaceOnUse">
<stop stop-color="#0084F8"/>
<stop offset="1" stop-color="#58C2F1"/>
</linearGradient>
<linearGradient id="paint28_linear" x1="194.847" y1="41.2721" x2="201.082" y2="40.4726" gradientUnits="userSpaceOnUse">
<stop stop-color="#0084F8"/>
<stop offset="1" stop-color="#58C2F1"/>
</linearGradient>
<linearGradient id="paint29_linear" x1="193.432" y1="42.1989" x2="202.68" y2="41.0142" gradientUnits="userSpaceOnUse">
<stop stop-color="#0084F8"/>
<stop offset="1" stop-color="#58C2F1"/>
</linearGradient>
<linearGradient id="paint30_linear" x1="129.84" y1="29.7472" x2="131.569" y2="18.3682" gradientUnits="userSpaceOnUse">
<stop stop-color="#0084F8"/>
<stop offset="1" stop-color="#58C2F1"/>
</linearGradient>
<linearGradient id="paint31_linear" x1="128.421" y1="30.6694" x2="141.596" y2="1.07136" gradientUnits="userSpaceOnUse">
<stop stop-color="#0084F8"/>
<stop offset="1" stop-color="#58C2F1"/>
</linearGradient>
<linearGradient id="paint32_linear" x1="204.49" y1="30.9897" x2="210.002" y2="30.283" gradientUnits="userSpaceOnUse">
<stop stop-color="#0084F8"/>
<stop offset="1" stop-color="#58C2F1"/>
</linearGradient>
<linearGradient id="paint33_linear" x1="203.075" y1="31.9181" x2="211.6" y2="30.8252" gradientUnits="userSpaceOnUse">
<stop stop-color="#0084F8"/>
<stop offset="1" stop-color="#58C2F1"/>
</linearGradient>
<linearGradient id="paint34_linear" x1="204.15" y1="31.2201" x2="210.386" y2="30.4207" gradientUnits="userSpaceOnUse">
<stop stop-color="#0084F8"/>
<stop offset="1" stop-color="#58C2F1"/>
</linearGradient>
<linearGradient id="paint35_linear" x1="202.736" y1="32.1469" x2="211.983" y2="30.9622" gradientUnits="userSpaceOnUse">
<stop stop-color="#0084F8"/>
<stop offset="1" stop-color="#58C2F1"/>
</linearGradient>
<linearGradient id="paint36_linear" x1="122.107" y1="18.4501" x2="123.53" y2="6.98485" gradientUnits="userSpaceOnUse">
<stop stop-color="#0084F8"/>
<stop offset="1" stop-color="#58C2F1"/>
</linearGradient>
<linearGradient id="paint37_linear" x1="120.69" y1="19.3799" x2="132.137" y2="-11.8926" gradientUnits="userSpaceOnUse">
<stop stop-color="#0084F8"/>
<stop offset="1" stop-color="#58C2F1"/>
</linearGradient>
<linearGradient id="paint38_linear" x1="214.163" y1="19.6926" x2="219.675" y2="18.9859" gradientUnits="userSpaceOnUse">
<stop stop-color="#0084F8"/>
<stop offset="1" stop-color="#58C2F1"/>
</linearGradient>
<linearGradient id="paint39_linear" x1="212.748" y1="20.621" x2="221.272" y2="19.5281" gradientUnits="userSpaceOnUse">
<stop stop-color="#0084F8"/>
<stop offset="1" stop-color="#58C2F1"/>
</linearGradient>
<linearGradient id="paint40_linear" x1="213.823" y1="19.9229" x2="220.059" y2="19.1235" gradientUnits="userSpaceOnUse">
<stop stop-color="#0084F8"/>
<stop offset="1" stop-color="#58C2F1"/>
</linearGradient>
<linearGradient id="paint41_linear" x1="212.4" y1="20.8498" x2="221.648" y2="19.6651" gradientUnits="userSpaceOnUse">
<stop stop-color="#0084F8"/>
<stop offset="1" stop-color="#58C2F1"/>
</linearGradient>
<linearGradient id="paint42_linear" x1="146.315" y1="175.298" x2="149.341" y2="164.504" gradientUnits="userSpaceOnUse">
<stop stop-color="#0084F8"/>
<stop offset="1" stop-color="#58C2F1"/>
</linearGradient>
<linearGradient id="paint43_linear" x1="144.887" y1="176.228" x2="162.163" y2="154.505" gradientUnits="userSpaceOnUse">
<stop stop-color="#0084F8"/>
<stop offset="1" stop-color="#58C2F1"/>
</linearGradient>
<linearGradient id="paint44_linear" x1="185.522" y1="176.54" x2="191.034" y2="175.834" gradientUnits="userSpaceOnUse">
<stop stop-color="#0084F8"/>
<stop offset="1" stop-color="#58C2F1"/>
</linearGradient>
<linearGradient id="paint45_linear" x1="184.107" y1="177.469" x2="192.632" y2="176.376" gradientUnits="userSpaceOnUse">
<stop stop-color="#0084F8"/>
<stop offset="1" stop-color="#58C2F1"/>
</linearGradient>
<linearGradient id="paint46_linear" x1="185.182" y1="176.771" x2="191.418" y2="175.971" gradientUnits="userSpaceOnUse">
<stop stop-color="#0084F8"/>
<stop offset="1" stop-color="#58C2F1"/>
</linearGradient>
<linearGradient id="paint47_linear" x1="183.768" y1="177.697" x2="193.015" y2="176.513" gradientUnits="userSpaceOnUse">
<stop stop-color="#0084F8"/>
<stop offset="1" stop-color="#58C2F1"/>
</linearGradient>
<linearGradient id="paint48_linear" x1="146.225" y1="185.357" x2="148.743" y2="174.288" gradientUnits="userSpaceOnUse">
<stop stop-color="#0084F8"/>
<stop offset="1" stop-color="#58C2F1"/>
</linearGradient>
<linearGradient id="paint49_linear" x1="144.815" y1="186.28" x2="161.057" y2="161.434" gradientUnits="userSpaceOnUse">
<stop stop-color="#0084F8"/>
<stop offset="1" stop-color="#58C2F1"/>
</linearGradient>
<linearGradient id="paint50_linear" x1="195.187" y1="186.6" x2="200.699" y2="185.893" gradientUnits="userSpaceOnUse">
<stop stop-color="#0084F8"/>
<stop offset="1" stop-color="#58C2F1"/>
</linearGradient>
<linearGradient id="paint51_linear" x1="193.772" y1="187.528" x2="202.296" y2="186.435" gradientUnits="userSpaceOnUse">
<stop stop-color="#0084F8"/>
<stop offset="1" stop-color="#58C2F1"/>
</linearGradient>
<linearGradient id="paint52_linear" x1="194.847" y1="186.823" x2="201.082" y2="186.023" gradientUnits="userSpaceOnUse">
<stop stop-color="#0084F8"/>
<stop offset="1" stop-color="#58C2F1"/>
</linearGradient>
<linearGradient id="paint53_linear" x1="193.432" y1="187.749" x2="202.68" y2="186.565" gradientUnits="userSpaceOnUse">
<stop stop-color="#0084F8"/>
<stop offset="1" stop-color="#58C2F1"/>
</linearGradient>
<linearGradient id="paint54_linear" x1="144.931" y1="195.409" x2="147.053" y2="184.168" gradientUnits="userSpaceOnUse">
<stop stop-color="#0084F8"/>
<stop offset="1" stop-color="#58C2F1"/>
</linearGradient>
<linearGradient id="paint55_linear" x1="143.515" y1="196.337" x2="158.496" y2="169.036" gradientUnits="userSpaceOnUse">
<stop stop-color="#0084F8"/>
<stop offset="1" stop-color="#58C2F1"/>
</linearGradient>
<linearGradient id="paint56_linear" x1="204.49" y1="196.653" x2="210.002" y2="195.945" gradientUnits="userSpaceOnUse">
<stop stop-color="#0084F8"/>
<stop offset="1" stop-color="#58C2F1"/>
</linearGradient>
<linearGradient id="paint57_linear" x1="203.075" y1="197.581" x2="211.599" y2="196.488" gradientUnits="userSpaceOnUse">
<stop stop-color="#0084F8"/>
<stop offset="1" stop-color="#58C2F1"/>
</linearGradient>
<linearGradient id="paint58_linear" x1="204.15" y1="196.882" x2="210.386" y2="196.083" gradientUnits="userSpaceOnUse">
<stop stop-color="#0084F8"/>
<stop offset="1" stop-color="#58C2F1"/>
</linearGradient>
<linearGradient id="paint59_linear" x1="202.736" y1="197.809" x2="211.983" y2="196.624" gradientUnits="userSpaceOnUse">
<stop stop-color="#0084F8"/>
<stop offset="1" stop-color="#58C2F1"/>
</linearGradient>
<linearGradient id="paint60_linear" x1="140.069" y1="206.699" x2="141.811" y2="195.324" gradientUnits="userSpaceOnUse">
<stop stop-color="#0084F8"/>
<stop offset="1" stop-color="#58C2F1"/>
</linearGradient>
<linearGradient id="paint61_linear" x1="138.648" y1="207.627" x2="151.921" y2="178.065" gradientUnits="userSpaceOnUse">
<stop stop-color="#0084F8"/>
<stop offset="1" stop-color="#58C2F1"/>
</linearGradient>
<linearGradient id="paint62_linear" x1="214.163" y1="207.941" x2="219.675" y2="207.235" gradientUnits="userSpaceOnUse">
<stop stop-color="#0084F8"/>
<stop offset="1" stop-color="#58C2F1"/>
</linearGradient>
<linearGradient id="paint63_linear" x1="212.748" y1="208.87" x2="221.272" y2="207.777" gradientUnits="userSpaceOnUse">
<stop stop-color="#0084F8"/>
<stop offset="1" stop-color="#58C2F1"/>
</linearGradient>
<linearGradient id="paint64_linear" x1="213.823" y1="208.172" x2="220.059" y2="207.372" gradientUnits="userSpaceOnUse">
<stop stop-color="#0084F8"/>
<stop offset="1" stop-color="#58C2F1"/>
</linearGradient>
<linearGradient id="paint65_linear" x1="212.4" y1="209.099" x2="221.648" y2="207.914" gradientUnits="userSpaceOnUse">
<stop stop-color="#0084F8"/>
<stop offset="1" stop-color="#58C2F1"/>
</linearGradient>
<linearGradient id="paint66_linear" x1="141.959" y1="57.5359" x2="232.901" y2="9.69652" gradientUnits="userSpaceOnUse">
<stop stop-color="#0084F8"/>
<stop offset="1" stop-color="#58C2F1"/>
</linearGradient>
<linearGradient id="paint67_linear" x1="140.543" y1="58.4566" x2="236.848" y2="11.5391" gradientUnits="userSpaceOnUse">
<stop stop-color="#0084F8"/>
<stop offset="1" stop-color="#58C2F1"/>
</linearGradient>
<linearGradient id="paint68_linear" x1="256.44" y1="37.5988" x2="262.149" y2="36.8669" gradientUnits="userSpaceOnUse">
<stop stop-color="#0084F8"/>
<stop offset="1" stop-color="#58C2F1"/>
</linearGradient>
<linearGradient id="paint69_linear" x1="255.025" y1="38.5271" x2="263.746" y2="37.4091" gradientUnits="userSpaceOnUse">
<stop stop-color="#0084F8"/>
<stop offset="1" stop-color="#58C2F1"/>
</linearGradient>
<linearGradient id="paint70_linear" x1="256.087" y1="37.8385" x2="262.548" y2="37.0101" gradientUnits="userSpaceOnUse">
<stop stop-color="#0084F8"/>
<stop offset="1" stop-color="#58C2F1"/>
</linearGradient>
<linearGradient id="paint71_linear" x1="254.663" y1="38.7653" x2="264.137" y2="37.5517" gradientUnits="userSpaceOnUse">
<stop stop-color="#0084F8"/>
<stop offset="1" stop-color="#58C2F1"/>
</linearGradient>
<linearGradient id="paint72_linear" x1="142.725" y1="79.8376" x2="233.328" y2="32.4872" gradientUnits="userSpaceOnUse">
<stop stop-color="#0084F8"/>
<stop offset="1" stop-color="#58C2F1"/>
</linearGradient>
<linearGradient id="paint73_linear" x1="141.307" y1="80.766" x2="237.238" y2="34.3239" gradientUnits="userSpaceOnUse">
<stop stop-color="#0084F8"/>
<stop offset="1" stop-color="#58C2F1"/>
</linearGradient>
<linearGradient id="paint74_linear" x1="256.44" y1="59.9081" x2="262.148" y2="59.1763" gradientUnits="userSpaceOnUse">
<stop stop-color="#0084F8"/>
<stop offset="1" stop-color="#58C2F1"/>
</linearGradient>
<linearGradient id="paint75_linear" x1="255.025" y1="60.8364" x2="263.746" y2="59.7184" gradientUnits="userSpaceOnUse">
<stop stop-color="#0084F8"/>
<stop offset="1" stop-color="#58C2F1"/>
</linearGradient>
<linearGradient id="paint76_linear" x1="256.087" y1="60.1463" x2="262.548" y2="59.3189" gradientUnits="userSpaceOnUse">
<stop stop-color="#0084F8"/>
<stop offset="1" stop-color="#58C2F1"/>
</linearGradient>
<linearGradient id="paint77_linear" x1="254.663" y1="61.0747" x2="264.137" y2="59.861" gradientUnits="userSpaceOnUse">
<stop stop-color="#0084F8"/>
<stop offset="1" stop-color="#58C2F1"/>
</linearGradient>
<linearGradient id="paint78_linear" x1="140.907" y1="90.6293" x2="211.435" y2="61.873" gradientUnits="userSpaceOnUse">
<stop stop-color="#0084F8"/>
<stop offset="1" stop-color="#58C2F1"/>
</linearGradient>
<linearGradient id="paint79_linear" x1="139.498" y1="91.5537" x2="214.134" y2="63.3082" gradientUnits="userSpaceOnUse">
<stop stop-color="#0084F8"/>
<stop offset="1" stop-color="#58C2F1"/>
</linearGradient>
<linearGradient id="paint80_linear" x1="220.629" y1="72.5258" x2="226.337" y2="71.7939" gradientUnits="userSpaceOnUse">
<stop stop-color="#0084F8"/>
<stop offset="1" stop-color="#58C2F1"/>
</linearGradient>
<linearGradient id="paint81_linear" x1="219.217" y1="73.4526" x2="227.931" y2="72.3374" gradientUnits="userSpaceOnUse">
<stop stop-color="#0084F8"/>
<stop offset="1" stop-color="#58C2F1"/>
</linearGradient>
<linearGradient id="paint82_linear" x1="220.281" y1="72.7527" x2="226.738" y2="71.9248" gradientUnits="userSpaceOnUse">
<stop stop-color="#0084F8"/>
<stop offset="1" stop-color="#58C2F1"/>
</linearGradient>
<linearGradient id="paint83_linear" x1="218.86" y1="73.686" x2="228.333" y2="72.4715" gradientUnits="userSpaceOnUse">
<stop stop-color="#0084F8"/>
<stop offset="1" stop-color="#58C2F1"/>
</linearGradient>
<linearGradient id="paint84_linear" x1="144.214" y1="69.5083" x2="240.958" y2="12.2485" gradientUnits="userSpaceOnUse">
<stop stop-color="#0084F8"/>
<stop offset="1" stop-color="#58C2F1"/>
</linearGradient>
<linearGradient id="paint85_linear" x1="142.798" y1="70.4305" x2="245.724" y2="14.1606" gradientUnits="userSpaceOnUse">
<stop stop-color="#0084F8"/>
<stop offset="1" stop-color="#58C2F1"/>
</linearGradient>
<linearGradient id="paint86_linear" x1="273.368" y1="49.5787" x2="279.076" y2="48.8469" gradientUnits="userSpaceOnUse">
<stop stop-color="#0084F8"/>
<stop offset="1" stop-color="#58C2F1"/>
</linearGradient>
<linearGradient id="paint87_linear" x1="271.953" y1="50.5071" x2="280.673" y2="49.3891" gradientUnits="userSpaceOnUse">
<stop stop-color="#0084F8"/>
<stop offset="1" stop-color="#58C2F1"/>
</linearGradient>
<linearGradient id="paint88_linear" x1="273.014" y1="49.8094" x2="279.476" y2="48.9819" gradientUnits="userSpaceOnUse">
<stop stop-color="#0084F8"/>
<stop offset="1" stop-color="#58C2F1"/>
</linearGradient>
<linearGradient id="paint89_linear" x1="271.591" y1="50.7362" x2="281.065" y2="49.5236" gradientUnits="userSpaceOnUse">
<stop stop-color="#0084F8"/>
<stop offset="1" stop-color="#58C2F1"/>
</linearGradient>
<linearGradient id="paint90_linear" x1="152.928" y1="183.875" x2="238.681" y2="142.982" gradientUnits="userSpaceOnUse">
<stop stop-color="#0084F8"/>
<stop offset="1" stop-color="#58C2F1"/>
</linearGradient>
<linearGradient id="paint91_linear" x1="151.517" y1="184.805" x2="242.064" y2="144.699" gradientUnits="userSpaceOnUse">
<stop stop-color="#0084F8"/>
<stop offset="1" stop-color="#58C2F1"/>
</linearGradient>
<linearGradient id="paint92_linear" x1="256.44" y1="190.163" x2="262.149" y2="189.431" gradientUnits="userSpaceOnUse">
<stop stop-color="#0084F8"/>
<stop offset="1" stop-color="#58C2F1"/>
</linearGradient>
<linearGradient id="paint93_linear" x1="255.025" y1="191.092" x2="263.746" y2="189.974" gradientUnits="userSpaceOnUse">
<stop stop-color="#0084F8"/>
<stop offset="1" stop-color="#58C2F1"/>
</linearGradient>
<linearGradient id="paint94_linear" x1="256.087" y1="190.395" x2="262.548" y2="189.567" gradientUnits="userSpaceOnUse">
<stop stop-color="#0084F8"/>
<stop offset="1" stop-color="#58C2F1"/>
</linearGradient>
<linearGradient id="paint95_linear" x1="254.663" y1="191.322" x2="264.137" y2="190.109" gradientUnits="userSpaceOnUse">
<stop stop-color="#0084F8"/>
<stop offset="1" stop-color="#58C2F1"/>
</linearGradient>
<linearGradient id="paint96_linear" x1="154.058" y1="161.56" x2="239.224" y2="121.366" gradientUnits="userSpaceOnUse">
<stop stop-color="#0084F8"/>
<stop offset="1" stop-color="#58C2F1"/>
</linearGradient>
<linearGradient id="paint97_linear" x1="152.643" y1="162.496" x2="242.561" y2="123.078" gradientUnits="userSpaceOnUse">
<stop stop-color="#0084F8"/>
<stop offset="1" stop-color="#58C2F1"/>
</linearGradient>
<linearGradient id="paint98_linear" x1="256.44" y1="167.854" x2="262.149" y2="167.122" gradientUnits="userSpaceOnUse">
<stop stop-color="#0084F8"/>
<stop offset="1" stop-color="#58C2F1"/>
</linearGradient>
<linearGradient id="paint99_linear" x1="255.025" y1="168.782" x2="263.746" y2="167.664" gradientUnits="userSpaceOnUse">
<stop stop-color="#0084F8"/>
<stop offset="1" stop-color="#58C2F1"/>
</linearGradient>
<linearGradient id="paint100_linear" x1="256.087" y1="168.086" x2="262.548" y2="167.258" gradientUnits="userSpaceOnUse">
<stop stop-color="#0084F8"/>
<stop offset="1" stop-color="#58C2F1"/>
</linearGradient>
<linearGradient id="paint101_linear" x1="254.663" y1="169.013" x2="264.137" y2="167.799" gradientUnits="userSpaceOnUse">
<stop stop-color="#0084F8"/>
<stop offset="1" stop-color="#58C2F1"/>
</linearGradient>
<linearGradient id="paint102_linear" x1="150.771" y1="149.306" x2="214.978" y2="126.23" gradientUnits="userSpaceOnUse">
<stop stop-color="#0084F8"/>
<stop offset="1" stop-color="#58C2F1"/>
</linearGradient>
<linearGradient id="paint103_linear" x1="149.365" y1="150.228" x2="217.299" y2="127.471" gradientUnits="userSpaceOnUse">
<stop stop-color="#0084F8"/>
<stop offset="1" stop-color="#58C2F1"/>
</linearGradient>
<linearGradient id="paint104_linear" x1="220.629" y1="155.244" x2="226.337" y2="154.512" gradientUnits="userSpaceOnUse">
<stop stop-color="#0084F8"/>
<stop offset="1" stop-color="#58C2F1"/>
</linearGradient>
<linearGradient id="paint105_linear" x1="219.217" y1="156.171" x2="227.931" y2="155.056" gradientUnits="userSpaceOnUse">
<stop stop-color="#0084F8"/>
<stop offset="1" stop-color="#58C2F1"/>
</linearGradient>
<linearGradient id="paint106_linear" x1="220.272" y1="155.476" x2="226.73" y2="154.649" gradientUnits="userSpaceOnUse">
<stop stop-color="#0084F8"/>
<stop offset="1" stop-color="#58C2F1"/>
</linearGradient>
<linearGradient id="paint107_linear" x1="218.868" y1="156.406" x2="228.341" y2="155.19" gradientUnits="userSpaceOnUse">
<stop stop-color="#0084F8"/>
<stop offset="1" stop-color="#58C2F1"/>
</linearGradient>
<linearGradient id="paint108_linear" x1="156.881" y1="171.903" x2="256.898" y2="108.186" gradientUnits="userSpaceOnUse">
<stop stop-color="#0084F8"/>
<stop offset="1" stop-color="#58C2F1"/>
</linearGradient>
<linearGradient id="paint109_linear" x1="155.463" y1="172.824" x2="262.278" y2="110.085" gradientUnits="userSpaceOnUse">
<stop stop-color="#0084F8"/>
<stop offset="1" stop-color="#58C2F1"/>
</linearGradient>
<linearGradient id="paint110_linear" x1="296.114" y1="178.183" x2="301.823" y2="177.451" gradientUnits="userSpaceOnUse">
<stop stop-color="#0084F8"/>
<stop offset="1" stop-color="#58C2F1"/>
</linearGradient>
<linearGradient id="paint111_linear" x1="294.7" y1="179.112" x2="303.42" y2="177.994" gradientUnits="userSpaceOnUse">
<stop stop-color="#0084F8"/>
<stop offset="1" stop-color="#58C2F1"/>
</linearGradient>
<linearGradient id="paint112_linear" x1="295.761" y1="178.421" x2="302.222" y2="177.594" gradientUnits="userSpaceOnUse">
<stop stop-color="#0084F8"/>
<stop offset="1" stop-color="#58C2F1"/>
</linearGradient>
<linearGradient id="paint113_linear" x1="294.337" y1="179.35" x2="303.811" y2="178.136" gradientUnits="userSpaceOnUse">
<stop stop-color="#0084F8"/>
<stop offset="1" stop-color="#58C2F1"/>
</linearGradient>
<linearGradient id="paint114_linear" x1="12.6109" y1="197.27" x2="155.593" y2="176.961" gradientUnits="userSpaceOnUse">
<stop stop-color="#0084F8"/>
<stop offset="1" stop-color="#58C2F1"/>
</linearGradient>
<linearGradient id="paint115_linear" x1="61.8683" y1="180.994" x2="100.936" y2="178.158" gradientUnits="userSpaceOnUse">
<stop stop-color="#0084F8"/>
<stop offset="1" stop-color="#58C2F1"/>
</linearGradient>
<linearGradient id="paint116_linear" x1="60.4619" y1="181.924" x2="102.561" y2="178.769" gradientUnits="userSpaceOnUse">
<stop stop-color="#0084F8"/>
<stop offset="1" stop-color="#58C2F1"/>
</linearGradient>
<clipPath id="clip0">
<rect x="0.00976562" y="0.86792" width="325" height="221" fill="white"/>
</clipPath>
</defs>
</svg>
